<svg xmlns="http://www.w3.org/2000/svg" viewBox="0 0 1181.91 1019.55"><defs><style>.cls-1{fill:#fff;}.cls-2{fill:none;stroke:#f9b233;stroke-linecap:round;stroke-linejoin:round;stroke-width:3px;}</style></defs><title>Fichier 12</title><g id="Calque_2" data-name="Calque 2"><g id="Calque_1-2" data-name="Calque 1"><path class="cls-1" d="M0,516.65l49.44-7.17.65,4.25L4.52,520.34l3.1,20.18-3.86.57Z"/><path class="cls-1" d="M52.44,538.52a2.82,2.82,0,0,1,3.29,2.24c.3,1.57-.59,3.11-2.83,3.53-2.72.5-6.49-.75-8.92-2.76l.67-1.15a10,10,0,0,0,5.55.89A2.66,2.66,0,0,1,52.44,538.52Z"/><path class="cls-1" d="M42,566.56c2.21,9.18-2.65,17.73-12.17,19.89S12,583,9.83,573.86,12.48,556.13,22,554,39.78,557.37,42,566.56ZM13.52,573c1.69,7,8.09,10.91,15.3,9.26s11.16-7.92,9.47-14.89-8.08-10.9-15.29-9.27S11.84,566,13.52,573Z"/><path class="cls-1" d="M30.8,595.91l16.57-5,1.25,4-15.84,4.74c-8.06,2.41-10.62,5.77-8.77,11.57s5.9,7.18,14,4.76l15.85-4.74,1.25,3.94-16.57,5c-9.54,2.86-15.31.33-17.92-7.9S21.26,598.77,30.8,595.91Z"/><path class="cls-1" d="M58.67,625.07l10.88-3.82,1.45,3.9L60.13,629,62.76,636l-3,1.08L57.08,630,38.6,636.53c-3.25,1.14-4.54,3-3.7,5.3a5.21,5.21,0,0,0,1.79,2.37l-2,2.59a9.15,9.15,0,0,1-3.6-4.57c-1.55-4.15.59-7.65,5.89-9.52l18.68-6.56-1.07-2.85,3-1.07Z"/><path class="cls-1" d="M36.61,653.6l28.88-11.19,1.58,3.83L38.19,657.43Zm40.67-13.54a2.69,2.69,0,0,1-1.56,3.53,2.85,2.85,0,0,1-3.66-1.51,2.72,2.72,0,0,1,1.58-3.55A2.83,2.83,0,0,1,77.28,640.06Z"/><path class="cls-1" d="M42.92,668.41l47.8-20.15L92.41,652l-47.8,20.15Z"/><path class="cls-1" d="M77,683.47c12.93-6.69,28.05-2.39,35.15,10.55a24.56,24.56,0,0,1,3,16.13l-4.22-.31a20.33,20.33,0,0,0-2.47-13.57c-6.07-11-18.5-14.21-29.19-8.68S64.38,704.9,70.44,716a21.27,21.27,0,0,0,10.22,9.56l-2.08,3.58a25.7,25.7,0,0,1-12.13-11.41C59.35,704.74,64.1,690.16,77,683.47Z"/><path class="cls-1" d="M115.19,734.93c5.21,7.91,3.55,17.51-4.66,22.6s-17.86,2.5-23.07-5.42-3.55-17.51,4.65-22.6S110,727,115.19,734.93ZM90.64,750.14a12.49,12.49,0,0,0,17.53,3.8c6.22-3.86,7.79-11,3.83-17a12.49,12.49,0,0,0-17.53-3.81C88.25,737,86.69,744.13,90.64,750.14Z"/><path class="cls-1" d="M103.61,773.75l42.44-29.44,2.47,3.35L106.08,777.1Z"/><path class="cls-1" d="M113.2,786.58,155,756l2.56,3.3-41.75,30.57Z"/><path class="cls-1" d="M134,788.6c7.28-5.87,16.89-5.33,22.57,1.31A13.65,13.65,0,0,1,159,804.28l5.13-4.15,2.71,3.18-23.88,19.27-2.71-3.17,5.13-4.14a14.63,14.63,0,0,1-14.12-4.88C125.55,803.75,126.75,794.48,134,788.6Zm.69,20.24c4.51,5.28,11.84,5.72,17.57,1.09s6.63-11.7,2.11-17-11.84-5.72-17.58-1.09S130.22,803.58,134.72,808.84Z"/><path class="cls-1" d="M192.66,800.06l-20,18.78a14.74,14.74,0,0,1,14.49,3.88c6.19,6.21,5.74,15.55-1.09,22s-16.47,6.57-22.66.36a13.74,13.74,0,0,1-3.53-14.18l-4.78,4.5-3-3,37.54-35.31Zm-26.49,24.67c-5.37,5-5.7,12.19-.78,17.13s12.29,4.84,17.65-.21,5.67-12.23.78-17.12S171.56,819.66,166.17,824.73Z"/><path class="cls-1" d="M215.5,849.07c7.25,6.27,8.33,16,1.82,23.06s-16.55,7.13-23.8.86-8.33-16-1.82-23.06S208.26,842.79,215.5,849.07Zm-19.45,21.17a12.56,12.56,0,0,0,18-1c4.93-5.37,4.44-12.71-1.06-17.47a12.57,12.57,0,0,0-18,1C190.05,858.13,190.54,865.47,196.05,870.24Z"/><path class="cls-1" d="M234.4,866l3.32,2.56-3.21,3.92a9.52,9.52,0,0,1,11,.91,12.63,12.63,0,0,1,3.42,4l-3.59,1.7a10.61,10.61,0,0,0-2.77-3.33c-3.46-2.68-8.9-2.22-12.51,2.18l-11.66,14.26-3.32-2.56Z"/><path class="cls-1" d="M241.91,891.11c5.46-7.52,14.9-9.42,22.17-4.45A13.83,13.83,0,0,1,270.22,900l3.85-5.31,3.47,2.39L259.63,921.7l-3.48-2.39L260,914a14.73,14.73,0,0,1-14.95-1.14C237.78,907.9,236.45,898.62,241.91,891.11ZM248,910.49c5.79,4,13,2.54,17.28-3.39s3.27-13-2.51-16.94-13-2.53-17.28,3.39S242.25,906.55,248,910.49Z"/><path class="cls-1" d="M287.05,903l6.16-9.5,3.61,2.2-6.16,9.5,6.56,4-1.73,2.67-6.56-4L278.46,924c-1.84,2.84-1.66,5.1.44,6.38a5.44,5.44,0,0,0,2.91.81l0,3.25a9.58,9.58,0,0,1-5.74-1.45c-3.85-2.35-4.37-6.4-1.37-11l10.58-16.32L282.68,904l1.73-2.66Z"/><path class="cls-1" d="M287.85,938.75l15.69-26,3.66,2.08-15.68,26Zm23.5-34.87a2.66,2.66,0,0,1,1,3.7,2.87,2.87,0,0,1-3.84,1,2.71,2.71,0,0,1-1-3.75A2.85,2.85,0,0,1,311.35,903.88Z"/><path class="cls-1" d="M313.1,921.81l1.55-2.75,2.71,1.43,5.39-9.57c3.42-6.09,8-7.62,12.4-5.32a8.13,8.13,0,0,1,4.39,5.71l-3.2,1.08a4.39,4.39,0,0,0-2.41-3.25c-2.53-1.34-5.2-.28-7.33,3.52l-5.51,9.8,7,3.71-1.55,2.76-7-3.7-13.3,23.65-3.72-2,13.3-23.66Z"/><path class="cls-1" d="M339.42,948.75c3.86-8.39,12.72-12,20.82-8.49a14,14,0,0,1,8.66,11.83l11.29-24.57,3.87,1.67-21.22,46.19L359,973.71l2.71-5.88a14.77,14.77,0,0,1-14.85,1.65C338.71,966,335.56,957.16,339.42,948.75Zm9.81,17.85c6.42,2.77,13.18,0,16.22-6.57s.62-13.32-5.8-16.1-13.21,0-16.24,6.55S342.82,963.82,349.23,966.6Z"/><path class="cls-1" d="M390.46,935.4a2.85,2.85,0,0,1,3.7-1.51c1.53.57,2.41,2.14,1.58,4.2-1,2.5-4.09,4.94-7.14,5.89l-.64-1.16a9.7,9.7,0,0,0,3.72-4.11A2.6,2.6,0,0,1,390.46,935.4Z"/><path class="cls-1" d="M388.68,984.93l16.1-46,23.83,7.85-1.26,3.61-19.63-6.48-6.15,17.58,18.94,6.24-1.26,3.61-18.94-6.25-6.18,17.66,19.64,6.48-1.27,3.6Z"/><path class="cls-1" d="M430.61,966.5l4.46,26.32,17.63-20.47,4.83,1.28L434.84,998.9l-2.75-.73-6.31-33Z"/><path class="cls-1" d="M457.27,989.1c1.9-9,9.76-14.4,18.46-12.66a14.2,14.2,0,0,1,11.08,9.78l1.35-6.34,4.15.83-6.24,29.52-4.16-.83,1.34-6.34a14.6,14.6,0,0,1-14.16,4.74C460.39,1006.07,455.36,998.1,457.27,989.1Zm13.54,15.38c6.93,1.38,12.93-2.71,14.43-9.8s-2.35-13.15-9.28-14.53S463,982.86,461.54,990,463.93,1003.11,470.81,1004.48Z"/><path class="cls-1" d="M498.83,1012l7.7-50,4.19.6-7.69,50Z"/><path class="cls-1" d="M516.6,1001.12l1.78-16.69,4.21.42-1.7,16c-.87,8.13,1.3,11.71,7.5,12.33s9.09-2.45,10-10.57l1.7-16,4.21.43-1.78,16.68c-1,9.62-5.67,13.76-14.46,12.88S515.57,1010.73,516.6,1001.12Z"/><path class="cls-1" d="M552.55,1002.75c.34-9.2,7.18-15.82,16.08-15.51a14.43,14.43,0,0,1,12.63,7.87l.24-6.48,4.25.15L584.64,1019l-4.25-.15.24-6.49a14.51,14.51,0,0,1-13.18,7C558.55,1019,552.21,1012,552.55,1002.75Zm16,13c7.08.26,12.32-4.76,12.58-12s-4.59-12.61-11.66-12.86-12.31,4.77-12.58,12S561.54,1015.52,568.58,1015.75Z"/><path class="cls-1" d="M597.11,988.53l-.2-11.27,4.28-.06.21,11.26,7.77-.14.06,3.15-7.78.14.36,19.14c.06,3.36,1.49,5.16,4,5.12a5.56,5.56,0,0,0,2.9-.87l1.87,2.7a9.66,9.66,0,0,1-5.65,1.84c-4.55.08-7.28-3-7.38-8.51l-.36-19.34-3.13,0,0-3.15Z"/><path class="cls-1" d="M617.51,976.56a2.72,2.72,0,1,1,.28,5.43,2.81,2.81,0,0,1-2.95-2.6A2.74,2.74,0,0,1,617.51,976.56Zm0,41.6L616,988.1l4.23-.2,1.53,30.06Z"/><path class="cls-1" d="M646.28,984.94c9.68-.93,17.78,4.88,18.74,14.33s-5.82,16.68-15.49,17.6-17.78-4.87-18.74-14.33S636.61,985.86,646.28,984.94Zm2.88,28.27c7.35-.71,12.2-6.36,11.48-13.52s-6.64-11.79-14-11.08-12.21,6.35-11.48,13.51S641.81,1013.91,649.16,1013.21Z"/><path class="cls-1" d="M676.15,982.32l.83,4.82c1.07-3.42,4.22-6.6,9.5-7.46,7-1.14,12.07,2.68,13.39,10.3l3.2,18.59-4.2.68-3.07-17.83c-1-6.11-4.73-9-10.1-8.18-5.81,1-8.43,5.56-7.41,11.53l3,17.34-4.2.68L672,983Z"/><path class="cls-1" d="M726.09,988.38c-2.5-8.89,2-17.15,10.59-19.42a14.68,14.68,0,0,1,14.45,3.83l-7.32-26,4.1-1.08,13.76,48.9-4.1,1.09-1.75-6.23a14.19,14.19,0,0,1-10.44,10.44C736.8,1002.17,728.6,997.29,726.09,988.38Zm19.28,7.79c6.79-1.81,10.25-8.1,8.28-15.09s-8.24-10.72-15-8.91-10.28,8.1-8.31,15.09S738.58,998,745.37,996.17Z"/><path class="cls-1" d="M769.38,978.26l-5.73-15.87,4-1.35,5.48,15.16c2.79,7.72,6.33,10.07,12.22,8.06s7.16-6,4.37-13.71l-5.48-15.17,4-1.36L794,969.88c3.31,9.13.92,14.81-7.43,17.66S772.68,987.4,769.38,978.26Z"/><path class="cls-1" d="M817.17,922.39c9-4,16.78-1.48,20.37,6.14,3.46,7.32.51,14.06-6.49,17.92l24.18,12.35-5.09,2.27L826.63,948.8l-5.15,2.29,8.87,18.78-4,1.79-20.81-44.09Zm2.73,25.36,6.69-3c7.13-3.18,9.55-8.71,6.85-14.43s-8.58-7.53-15.71-4.36L811,929Z"/><path class="cls-1" d="M844.59,917.09a2.81,2.81,0,0,1,3.75,1.15,2.68,2.68,0,0,1-1.17,3.67,2.87,2.87,0,0,1-3.8-1.16A2.69,2.69,0,0,1,844.59,917.09Zm17.86,37.81-14.3-26.69,3.76-1.91L866.21,953Z"/><path class="cls-1" d="M873.52,941.64a10.27,10.27,0,0,0,9.75-.33c3.34-1.86,5.27-5,3.33-8.33s-5.7-2.8-10.69-2c-4.26.64-9.36,1.3-11.87-3-2.3-3.91-.52-8.83,4.58-11.66a11,11,0,0,1,10.24-.57l-1.08,2.6a8.19,8.19,0,0,0-7.4.48c-3.29,1.83-4.35,4.65-2.92,7.08s4.46,2.23,8.86,1.52c6.2-1,11.28-1.05,14,3.62,2.88,4.88.62,9.69-5.15,12.89-4.07,2.27-8.59,2.84-13,.36Z"/><path class="cls-1" d="M893,921.16c-5.22-7.7-3.57-16.9,3.86-21.65a14.8,14.8,0,0,1,15-.7l-3.65-5.4,3.55-2.26,25.75,38-3.55,2.28-12.32-18.2a13.87,13.87,0,0,1-6.6,13.06C907.57,931,898.21,928.86,893,921.16Zm20.81,1.6c5.88-3.76,7.15-10.79,3.05-16.84s-11.24-7.7-17.13-3.94-7.18,10.79-3.08,16.84S907.91,926.51,913.8,922.76Z"/><path class="cls-1" d="M931.17,898.4,920.72,885l3.37-2.48,10,12.8c5.09,6.51,9.2,7.69,14.17,4s4.92-7.82-.17-14.34l-10-12.78,3.38-2.5,10.45,13.38c6,7.71,5.55,13.82-1.5,19S937.19,906.12,931.17,898.4Z"/><path class="cls-1" d="M959.62,853.52a16.38,16.38,0,0,1,22.57,1.38,7.19,7.19,0,0,1,.65.77l-21.28,18c4.82,5.38,12.28,5.81,18,1a12.5,12.5,0,0,0,4.62-11.33l3.48-.74c.91,5.41-1.25,10.86-5.91,14.79-7.46,6.31-17.48,5.59-23.55-1.18A15.61,15.61,0,0,1,959.62,853.52Zm.38,18.16,18-15.22a12.27,12.27,0,0,0-16.34-.54A11.35,11.35,0,0,0,960,871.68Z"/><path class="cls-1" d="M999.92,839.33c-6.92-6.3-7.52-15.61-1.44-21.9a14.67,14.67,0,0,1,14.36-4.06l-20.22-18.43,2.9-3,38,34.65-2.91,3-4.84-4.41a13.69,13.69,0,0,1-3.27,14.18C1016.45,845.63,1006.84,845.63,999.92,839.33Zm20.59-3.15c4.81-5,4.37-12.08-1.07-17s-12.77-4.94-17.58,0-4.39,12.1,1,17.06S1015.7,841.16,1020.51,836.18Z"/><path class="cls-1" d="M1026.66,786.44a16.38,16.38,0,0,1,22.48-2.29,9,9,0,0,1,.77.66L1032,806c5.68,4.52,13.1,3.72,17.87-1.92a12.39,12.39,0,0,0,2.61-11.91l3.3-1.3c1.82,5.19.63,10.91-3.28,15.53-6.28,7.43-16.27,8.34-23.4,2.66A15.63,15.63,0,0,1,1026.66,786.44Zm3.5,17.84,15.15-17.92a12.29,12.29,0,0,0-16.2,2.11A11.34,11.34,0,0,0,1030.16,804.28Z"/><path class="cls-1" d="M1036.41,745.31l7.11-10.35c5.44-7.91,13.48-9.81,20.79-5.08s8.6,12.68,3.17,20.59l-4.65,6.78,17.65,11.42-2.46,3.58Zm5.46-1.62,18,11.61,4.11-6c4.18-6.1,3.44-12.23-2.11-15.82s-11.66-1.89-15.85,4.2Z"/><path class="cls-1" d="M1072,726.07l2.17-3.54,4.42,2.56a8.83,8.83,0,0,1-.56-10.72,12.83,12.83,0,0,1,3.57-3.82l2.22,3.22a10.7,10.7,0,0,0-3,3.11c-2.26,3.69-1,8.86,3.92,11.73l16.11,9.29-2.16,3.54Z"/><path class="cls-1" d="M1080.59,694.63l-.91-12.37,4.07,0-.45,12.17Zm8.91-.57A16.25,16.25,0,0,1,1111,687.4c.34.18.61.32.89.49l-13.09,24.21c6.49,3.31,13.59,1.08,17.09-5.38a12.35,12.35,0,0,0,.07-12.16l3-1.92c2.86,4.71,2.88,10.55,0,15.84-4.59,8.49-14.19,11.35-22.35,7.19C1088.23,711.4,1085.31,701.79,1089.5,694.06Zm7.13,16.76,11.1-20.51a12.19,12.19,0,0,0-15.41,5.25A11.38,11.38,0,0,0,1096.63,710.82Z"/><path class="cls-1" d="M1114.9,681c-8.7-3.67-12.5-12.22-9-20.14a14.36,14.36,0,0,1,12.1-8.52l-25.43-10.73,1.69-3.77L1142.11,658l-1.69,3.78-6.09-2.56a13.62,13.62,0,0,1,1.85,14.4C1132.64,681.48,1123.61,684.62,1114.9,681Zm18.29-9.71c2.79-6.26-.09-12.8-6.93-15.68s-13.73-.47-16.53,5.79.08,12.83,6.91,15.72S1130.39,677.51,1133.19,671.25Z"/><path class="cls-1" d="M1131.78,642.62c-8.93-3-13.39-11.32-10.45-19.46a14.27,14.27,0,0,1,11.47-9.35l-6.29-2.14,1.4-3.89,29.3,10-1.41,3.89-6.29-2.15a13.67,13.67,0,0,1,2.94,14.27C1149.51,641.9,1140.7,645.66,1131.78,642.62Zm17.52-11c2.33-6.47-1-12.8-8.07-15.19s-13.74.5-16.08,7,1,12.8,8.07,15.2S1147,638.1,1149.3,631.65Z"/><path class="cls-1" d="M1131,597.1,1119.89,594l1.18-4,11.14,3.12,2.15-7.25,3.12.87-2.15,7.25,18.92,5.29c3.32.94,5.52.14,6.2-2.18a4.94,4.94,0,0,0,0-3l3.22-.93a8.86,8.86,0,0,1,.14,5.77c-1.25,4.25-5.12,5.86-10.53,4.35L1134.14,598l-.86,2.91-3.12-.87Z"/><path class="cls-1" d="M1125.16,574.45a2.78,2.78,0,0,1,3.39-2,2.72,2.72,0,0,1,2,3.3,2.84,2.84,0,0,1-3.43,2A2.72,2.72,0,0,1,1125.16,574.45Zm41.08,12.23-30.13-7.41,1.05-4,30.12,7.42Z"/><path class="cls-1" d="M1142,550.41c1.91-9.23,10-15,19.53-13.16s14.68,10.23,12.77,19.46-10,15-19.52,13.16S1140.12,559.63,1142,550.41Zm28.59,5.57c1.45-7-2.68-13.15-9.93-14.55s-13.5,2.7-15,9.7,2.69,13.15,9.93,14.57S1169.18,563,1170.62,556Z"/><path class="cls-1" d="M1148.24,521.66l5,.63c-3.07-2-5.27-5.83-4.58-11,.92-6.84,6.15-10.42,14-9.43l19.23,2.44-.54,4.1-18.46-2.34c-6.32-.8-10.27,1.75-11,7-.76,5.67,3,9.45,9.19,10.24l17.94,2.27-.55,4.09-30.82-3.91Z"/><path class="cls-1" d="M384.08,795c0-36.3,28.47-64.46,67.48-64.46,15.9,0,30.47,4.74,41,12.5l-7.92,12.5c-8.37-6.4-19.85-9.87-32.1-9.87-30.87,0-51.26,21.54-51.26,49.33s20.39,49.31,51.26,49.31c12.25,0,23.73-3.47,32.1-9.86l7.92,12.49c-10.56,7.76-25.13,12.5-41,12.5C412.55,859.41,384.08,831.25,384.08,795Z"/><path class="cls-1" d="M517.31,857V732.77h66.54v13.55H533.13V788H582v13.55H533.13v41.94h50.72V857Z"/><path class="cls-1" d="M648.54,732.77C674,732.77,690,746.7,690,769.21,690,788.93,677.7,802,657.54,805l42.19,52H679.64L640,806.33H628.07V857H612.25V732.77Zm-20.47,60.54h16.2c18.46,0,29.4-9.12,29.4-24.1s-10.94-24.09-29.4-24.09h-16.2Z"/><path class="cls-1" d="M720.05,732.77h36.29c25,0,41.49,13.86,41.49,36.59S781.39,806,756.34,806H735.86v51H720.05Zm15.81,12.35v48.49h16.21c17.38,0,29.4-8.66,29.4-24.25s-12-24.24-29.4-24.24Z"/><polygon class="cls-2" points="796.86 349.82 826.37 423.85 906.63 316.66 874.16 239.69 796.86 349.82"/><polyline class="cls-2" points="238.99 578.61 191.2 452.04 150.11 664.19 180.73 664.19"/><polygon class="cls-2" points="165.49 141.93 158.18 254.55 182.14 428.03 191.2 452.04 238.99 578.61 238.99 578.61 238.99 578.61 251.77 612.46 271.38 664.39 391.61 301.96 165.49 141.93"/><polyline class="cls-2" points="180.73 664.39 238.99 578.61 219.6 527.25"/><polygon class="cls-2" points="905.36 210.39 969.8 181.74 916.83 158.11 897.92 91.57 916.83 158.11 969.8 181.74 969.8 181.74 969.8 181.74 1002.74 196.43 1033.45 255.13 1031.57 199.78 913.5 76.83 806.58 178.02 905.36 210.39"/><polygon class="cls-2" points="134.74 269.99 158.18 254.55 165.49 141.93 134.74 269.99"/><polygon class="cls-2" points="796.86 349.82 874.16 239.69 806.58 178.02 913.5 76.83 668.93 17.84 874.91 113.34 668.93 17.84 427.85 1.5 238.99 69.83 165.49 141.93 391.61 301.96 391.61 301.96 391.61 301.96 720.65 534.83 720.65 534.83 720.65 534.83 748.34 554.43 905.57 664.39 760.26 401.96 796.86 349.82"/><polygon class="cls-2" points="391.61 301.96 271.38 664.39 293.15 664.39 397.39 426.25 588.63 442.36 625.28 468.37 656.04 664.39 662.41 664.39 720.65 534.83 391.61 301.96"/><polygon class="cls-2" points="760.26 401.96 905.57 664.39 922.24 664.39 829.7 432.22 829.7 432.22 829.7 432.22 796.86 349.82 760.26 401.96"/><polygon class="cls-2" points="1033.66 261.18 1033.45 255.13 1002.74 196.43 969.8 181.74 905.36 210.39 806.58 178.02 874.16 239.69 906.63 316.66 977.43 426.34 1021.64 426.79 1037.27 407.9 1026.39 381.44 1037.27 407.9 1047.17 395.92 1033.66 261.18"/><polygon class="cls-2" points="662.41 664.39 675.14 664.39 748.34 554.43 720.65 534.83 662.41 664.39"/><line class="cls-2" x1="170.53" y1="662.9" x2="218.61" y2="525.96"/></g></g></svg>