<svg xmlns="http://www.w3.org/2000/svg" viewBox="0 0 997.77 808.72"><defs><style>.cls-1{fill:#575756;}.cls-2{fill:#3c3c3b;}.cls-3{fill:none;stroke:#f9b233;stroke-linecap:round;stroke-linejoin:round;stroke-width:3px;}</style></defs><title>Fichier 3</title><g id="Calque_2" data-name="Calque 2"><g id="Calque_1-2" data-name="Calque 1"><path class="cls-1" d="M0,371.46l41.78-6.19.55,3.7L3.81,374.68l2.61,17.57-3.27.48Z"/><path class="cls-1" d="M44.26,390.25A2.39,2.39,0,0,1,47,392.2a2.6,2.6,0,0,1-2.39,3.07c-2.29.44-5.48-.65-7.53-2.39l.56-1a8.26,8.26,0,0,0,4.7.77A2.3,2.3,0,0,1,44.26,390.25Z"/><path class="cls-1" d="M35.46,414.77c1.88,8-2.2,15.41-10.22,17.31s-15-2.92-16.9-10.9,2.2-15.41,10.22-17.3S33.57,406.8,35.46,414.77Zm-24,5.68a10.4,10.4,0,0,0,12.92,8,10.78,10.78,0,0,0-5-21A10.4,10.4,0,0,0,11.46,420.45Z"/><path class="cls-1" d="M26,440.39l14-4.29,1.06,3.44-13.39,4.09c-6.82,2.09-9,5-7.43,10.06s5,6.25,11.78,4.16l13.39-4.09,1.05,3.43-14,4.29c-8.07,2.46-12.93.25-15.12-6.91S17.94,442.86,26,440.39Z"/><path class="cls-1" d="M49.68,465.91l9.21-3.33,1.23,3.4-9.21,3.33,2.23,6.17-2.58.94-2.23-6.18-15.66,5.65c-2.74,1-3.84,2.64-3.13,4.63a4.62,4.62,0,0,0,1.52,2.07l-1.73,2.25a7.91,7.91,0,0,1-3-4c-1.31-3.62.5-6.68,5-8.3l15.82-5.71-.9-2.48,2.58-.93Z"/><path class="cls-1" d="M30.92,490.5l24.28-9.74,1.33,3.32-24.29,9.74Zm34.19-11.79a2.34,2.34,0,0,1-1.3,3.06,2.37,2.37,0,0,1-3.09-1.3,2.4,2.4,0,0,1,1.33-3.09A2.36,2.36,0,0,1,65.11,478.71Z"/><path class="cls-1" d="M36.23,503.41l40.33-17.52L78,489.17,37.66,506.68Z"/><path class="cls-1" d="M65.11,516.47c11-5.84,23.77-2.08,29.79,9.22a22.07,22.07,0,0,1,2.53,14.08l-3.58-.27a18.21,18.21,0,0,0-2.09-11.85C86.62,518,76.08,515.25,67,520.07s-12.65,15.11-7.51,24.75a18.19,18.19,0,0,0,8.66,8.35l-1.77,3.12a22,22,0,0,1-10.28-10C50.12,535,54.15,522.31,65.11,516.47Z"/><path class="cls-1" d="M97.34,561.21c4.41,6.9,3,15.27-3.93,19.71s-15.12,2.2-19.54-4.7-3-15.27,3.92-19.72S92.92,554.3,97.34,561.21ZM76.56,574.5a10.73,10.73,0,1,0,3.23-14.87A10.4,10.4,0,0,0,76.56,574.5Z"/><path class="cls-1" d="M87.46,595l36-25.58,2.08,2.92L89.54,597.93Z"/><path class="cls-1" d="M95.56,606.16l35.26-26.5,2.15,2.87L97.72,609Z"/><path class="cls-1" d="M113.15,607.92c6.14-5.1,14.25-4.62,19,1.15a12.12,12.12,0,0,1,2,12.49l4.33-3.6,2.29,2.76-20.17,16.74-2.28-2.76,4.33-3.59a12.13,12.13,0,0,1-11.91-4.26C106,621.08,107,613,113.15,607.92Zm.56,17.59c3.81,4.59,10,5,14.83,1s5.6-10.17,1.79-14.76-10-5-14.83-1S109.92,620.94,113.71,625.51Z"/><path class="cls-1" d="M162.5,617.9l-16.8,16.3a12.18,12.18,0,0,1,12.2,3.34c5.22,5.39,4.85,13.48-.9,19.06s-13.85,5.71-19.07.33a12.16,12.16,0,0,1-3-12.29l-4,3.9-2.5-2.57L160,615.32Zm-22.28,21.41c-4.52,4.38-4.79,10.57-.64,14.84s10.34,4.19,14.86-.19,4.75-10.61.63-14.85S144.75,634.91,140.22,639.31Z"/><path class="cls-1" d="M181.9,660.41c6.13,5.44,7.07,13.88,1.59,20.05s-14,6.24-20.1.79-7.07-13.88-1.59-20S175.77,655,181.9,660.41Zm-16.39,18.45a10.73,10.73,0,1,0-.93-15.19A10.42,10.42,0,0,0,165.51,678.86Z"/><path class="cls-1" d="M197.91,675.17l2.82,2.23L198,680.81a7.86,7.86,0,0,1,9.32.79,10.94,10.94,0,0,1,2.91,3.45l-3.05,1.48a9.23,9.23,0,0,0-2.34-2.91c-2.93-2.32-7.54-1.92-10.59,1.92L184.4,698l-2.81-2.24Z"/><path class="cls-1" d="M204.34,697.16c4.6-6.52,12.55-8.17,18.67-3.85a12.1,12.1,0,0,1,5.17,11.53l3.24-4.6,2.93,2.06-15.09,21.41-2.93-2.07,3.25-4.59a12.14,12.14,0,0,1-12.6-1C200.85,711.73,199.74,703.68,204.34,697.16ZM209.47,714c4.87,3.43,10.93,2.2,14.56-2.94s2.74-11.27-2.13-14.71-10.93-2.19-14.56,2.95S204.62,710.57,209.47,714Z"/><path class="cls-1" d="M242.53,707.38l5.22-8.29,3.06,1.92-5.22,8.3,5.55,3.49-1.46,2.33-5.55-3.5-8.87,14.09c-1.56,2.47-1.41,4.44.37,5.57a4.57,4.57,0,0,0,2.47.7l0,2.84a8,8,0,0,1-4.86-1.28c-3.26-2-3.71-5.57-1.17-9.61l9-14.24-2.24-1.41,1.46-2.32Z"/><path class="cls-1" d="M243,738.47l13.31-22.64,3.09,1.82-13.31,22.64Zm19.92-30.35a2.37,2.37,0,0,1-2.4,4.09,2.37,2.37,0,1,1,2.4-4.09Z"/><path class="cls-1" d="M264.55,723.76l1.32-2.41,2.29,1.26,4.57-8.35c2.91-5.32,6.83-6.65,10.52-4.63a7,7,0,0,1,3.71,5l-2.71.94a3.8,3.8,0,0,0-2-2.84c-2.14-1.17-4.4-.25-6.21,3.06l-4.69,8.55,5.92,3.24L275.91,730,270,726.74l-11.3,20.64-3.15-1.72L266.84,725Z"/><path class="cls-1" d="M286.55,747.1c3.27-7.34,10.77-10.49,17.64-7.42A12.18,12.18,0,0,1,311.53,750l9.56-21.45,3.28,1.46-18,40.33-3.28-1.46,2.29-5.14a12.19,12.19,0,0,1-12.59,1.45C286,762.12,283.28,754.44,286.55,747.1Zm8.32,15.57c5.44,2.43,11.17,0,13.74-5.73s.52-11.63-4.92-14.06-11.2,0-13.77,5.73S289.43,760.25,294.87,762.67Z"/><path class="cls-1" d="M329.54,735.65a2.38,2.38,0,0,1,3.12-1.31A2.6,2.6,0,0,1,334,738c-.84,2.17-3.45,4.29-6,5.1l-.54-1a8.38,8.38,0,0,0,3.13-3.56A2.3,2.3,0,0,1,329.54,735.65Z"/><path class="cls-1" d="M361.86,745.41l-1.06,3.13L344.24,743l-5.15,15.28,16,5.38L354,766.75l-16-5.38-5.18,15.34,16.56,5.59-1.05,3.13-20.1-6.78,13.48-40ZM350.71,734l10.5-2.46.58,3.38-10.5,1.29Z"/><path class="cls-1" d="M363.42,762.63l3.78,22.82L382,767.68l4.06,1.11L367,790.72l-2.31-.63-5.35-28.56Z"/><path class="cls-1" d="M386.15,782.27c1.59-7.82,8.21-12.52,15.54-11a12.1,12.1,0,0,1,9.37,8.47l1.12-5.51,3.51.71-5.21,25.66-3.51-.71,1.12-5.51a12.16,12.16,0,0,1-11.93,4.15C388.82,797,384.56,790.09,386.15,782.27Zm11.45,13.34c5.84,1.19,10.89-2.38,12.15-8.54s-2-11.42-7.85-12.61S391,776.84,389.75,783,391.79,794.42,397.6,795.61Z"/><path class="cls-1" d="M421.27,802.16l6.46-43.56,3.54.53-6.45,43.55Z"/><path class="cls-1" d="M436.29,792.69l1.53-14.54,3.57.38-1.47,13.9c-.74,7.07,1.09,10.2,6.33,10.75s7.69-2.12,8.44-9.2l1.46-13.9,3.56.38L458.18,795c-.88,8.38-4.81,12-12.24,11.2S435.41,801.07,436.29,792.69Z"/><path class="cls-1" d="M466.63,794.13c.3-8,6.07-13.72,13.56-13.45a12.16,12.16,0,0,1,10.64,6.85l.21-5.63,3.58.13-1,26.21-3.58-.14.2-5.62a12.14,12.14,0,0,1-11.11,6C471.68,808.25,466.34,802.11,466.63,794.13Zm13.5,11.3c6,.22,10.38-4.12,10.61-10.42s-3.86-11-9.82-11.17-10.37,4.13-10.6,10.42S474.19,805.22,480.13,805.43Z"/><path class="cls-1" d="M504.08,781.79l-.15-9.77,3.6-.06.16,9.78,6.55-.1,0,2.73-6.55.1.26,16.61c.05,2.92,1.25,4.49,3.35,4.46a4.55,4.55,0,0,0,2.45-.76l1.57,2.36a8,8,0,0,1-4.76,1.58c-3.84.06-6.14-2.64-6.21-7.4l-.26-16.79-2.64,0,0-2.73Z"/><path class="cls-1" d="M521.55,771.23a2.37,2.37,0,0,1,.22,4.73,2.37,2.37,0,1,1-.22-4.73Zm-.09,36.27-1.23-26.21,3.58-.16,1.24,26.2Z"/><path class="cls-1" d="M545.67,778.65c8.14-.82,15,4.21,15.79,12.4s-4.88,14.48-13,15.29-15-4.21-15.79-12.4S537.52,779.46,545.67,778.65Zm2.45,24.51a10.72,10.72,0,1,0-11.79-9.59A10.39,10.39,0,0,0,548.12,803.16Z"/><path class="cls-1" d="M570.86,776.4l.71,4.18c.89-3,3.54-5.74,8-6.49,5.89-1,10.16,2.29,11.28,8.89l2.74,16.09-3.53.6-2.62-15.44c-.9-5.29-4-7.82-8.51-7.05-4.89.83-7.09,4.83-6.21,10l2.56,15-3.53.6L567.33,777Z"/><path class="cls-1" d="M612.94,781.64c-2.1-7.72,1.7-14.86,8.92-16.83A12.12,12.12,0,0,1,634,768.16l-6.13-22.56,3.46-.94,11.52,42.4-3.46.94L638,782.6a12.12,12.12,0,0,1-8.8,9C621.93,793.6,615,789.36,612.94,781.64Zm16.21,6.76c5.72-1.55,8.63-7,7-13.06s-6.91-9.29-12.63-7.74-8.66,7-7,13.08S623.43,790,629.15,788.4Z"/><path class="cls-1" d="M649.64,772.76,644.82,759l3.38-1.18L652.8,771c2.35,6.71,5.34,8.75,10.31,7s6-5.2,3.68-11.9l-4.61-13.17,3.38-1.18,4.82,13.77c2.78,7.93.76,12.86-6.28,15.33S652.41,780.69,649.64,772.76Z"/><path class="cls-1" d="M689.89,724c7.6-3.49,14.22-1.31,17.28,5.33,2.93,6.39.44,12.28-5.49,15.66l20.51,10.76-4.31,2L697.94,747l-4.36,2,7.54,16.39L697.71,767,680,728.52Zm2.35,22.14,5.67-2.61c6-2.78,8.07-7.61,5.78-12.6s-7.28-6.57-13.32-3.79l-5.66,2.61Z"/><path class="cls-1" d="M713.26,719.47a2.36,2.36,0,0,1,2.18,4.19,2.36,2.36,0,1,1-2.18-4.19Zm15.09,32.84-12.08-23.18,3.17-1.65,12.07,23.18Z"/><path class="cls-1" d="M737.52,740.85a8.44,8.44,0,0,0,8.25-.29c2.82-1.62,4.46-4.38,2.82-7.25s-4.82-2.44-9-1.77c-3.61.56-7.92,1.14-10-2.57-2-3.41-.44-7.69,3.87-10.16a9,9,0,0,1,8.66-.5l-.92,2.27a6.7,6.7,0,0,0-6.25.42c-2.78,1.59-3.68,4-2.47,6.16s3.77,2,7.49,1.33c5.24-.85,9.54-.92,11.88,3.15,2.43,4.25.52,8.44-4.35,11.23-3.45,2-7.27,2.47-11,.31Z"/><path class="cls-1" d="M754,723c-4.41-6.71-3-14.71,3.28-18.83a12.16,12.16,0,0,1,12.64-.6l-3.08-4.7,3-2L791.53,730l-3,2-10.4-15.84a12.18,12.18,0,0,1-5.58,11.36C766.27,731.65,758.37,729.75,754,723Zm17.57,1.41c5-3.26,6.06-9.37,2.6-14.65s-9.5-6.71-14.47-3.44-6.08,9.38-2.62,14.66S766.57,727.71,771.54,724.45Z"/><path class="cls-1" d="M786.12,703.26l-8.87-11.63,2.86-2.18,8.48,11.12c4.32,5.66,7.8,6.68,12,3.47s4.13-6.82-.19-12.48l-8.49-11.12,2.86-2.18,8.87,11.63c5.11,6.7,4.73,12-1.22,16.56S791.24,710,786.12,703.26Z"/><path class="cls-1" d="M810.37,664.21a13.51,13.51,0,0,1,19,1.21c.22.25.38.45.55.68L812,681.65c4,4.67,10.32,5,15.11.89a11,11,0,0,0,3.9-9.81l2.92-.65a14,14,0,0,1-5,12.82c-6.3,5.46-14.73,4.83-19.82-1A13.82,13.82,0,0,1,810.37,664.21Zm.31,15.74,15.18-13.18A10.08,10.08,0,0,0,810.68,680Z"/><path class="cls-1" d="M844.34,651.74c-5.83-5.5-6.32-13.59-1.18-19a12.17,12.17,0,0,1,12.14-3.51l-17-16.06,2.46-2.61,32,30.19-2.45,2.61-4.08-3.84a12.12,12.12,0,0,1-2.79,12.31C858.28,657.24,850.17,657.23,844.34,651.74ZM861.73,649c4.07-4.32,3.71-10.5-.87-14.82s-10.77-4.31-14.85,0-3.72,10.51.86,14.83S857.66,653.35,861.73,649Z"/><path class="cls-1" d="M866.7,605.92a13.52,13.52,0,0,1,19-2,7.77,7.77,0,0,1,.65.57l-15,18.42c4.79,3.92,11.06,3.22,15.08-1.7a11,11,0,0,0,2.18-10.35l2.78-1.14a14,14,0,0,1-2.74,13.51c-5.29,6.46-13.72,7.27-19.75,2.34A13.83,13.83,0,0,1,866.7,605.92Zm3,15.5,12.76-15.61a10.11,10.11,0,0,0-12.76,15.61Z"/><path class="cls-1" d="M874.94,570.1l6-9c4.58-6.88,11.38-8.54,17.56-4.42s7.26,11,2.68,17.91l-3.94,5.9,14.91,9.94-2.07,3.11Zm4.61-1.42,15.17,10.11,3.46-5.2c3.54-5.3,2.91-10.64-1.77-13.76s-9.86-1.65-13.4,3.65Z"/><path class="cls-1" d="M905,553.3l1.83-3.08,3.74,2.23a7.86,7.86,0,0,1-.45-9.33,11,11,0,0,1,3-3.32l1.87,2.82a9.17,9.17,0,0,0-2.57,2.69c-1.92,3.21-.91,7.72,3.28,10.23l13.6,8.12-1.83,3.08Z"/><path class="cls-1" d="M912.27,526l-.76-10.75,3.44,0-.4,10.58Zm7.52-.49A13.51,13.51,0,0,1,938,519.77a7.41,7.41,0,0,1,.76.42l-11.08,21c5.48,2.88,11.48.95,14.44-4.67a11,11,0,0,0,.07-10.57l2.49-1.66a14,14,0,0,1,0,13.77c-3.89,7.38-12,9.85-18.87,6.23A13.85,13.85,0,0,1,919.79,525.53Zm6,14.58,9.39-17.82a10.1,10.1,0,0,0-9.39,17.82Z"/><path class="cls-1" d="M941.29,514c-7.34-3.19-10.55-10.63-7.57-17.5a12.17,12.17,0,0,1,10.21-7.41l-21.45-9.31,1.43-3.29L964.23,494l-1.42,3.28L957.68,495a12.17,12.17,0,0,1,1.55,12.52C956.25,514.43,948.62,517.17,941.29,514Zm15.42-8.44c2.36-5.44-.08-11.12-5.84-13.62s-11.59-.41-14,5,.06,11.15,5.83,13.65S954.34,511,956.71,505.54Z"/><path class="cls-1" d="M955.5,480.64c-7.52-2.63-11.28-9.82-8.81-16.89a12.11,12.11,0,0,1,9.66-8.12l-5.3-1.86,1.18-3.37,24.7,8.64-1.19,3.37-5.3-1.85a12.13,12.13,0,0,1,2.49,12.38C970.46,480,963,483.28,955.5,480.64Zm14.76-9.53c2-5.62-.87-11.11-6.81-13.18s-11.58.44-13.54,6.06.88,11.11,6.81,13.18S968.3,476.7,970.26,471.11Z"/><path class="cls-1" d="M954.79,441l-9.42-2.71,1-3.48,9.42,2.72,1.82-6.31,2.63.76-1.81,6.31,16,4.61c2.81.81,4.66.11,5.24-1.91a4.41,4.41,0,0,0,0-2.57l2.72-.81a7.94,7.94,0,0,1,.13,5c-1.07,3.7-4.33,5.11-8.91,3.79l-16.17-4.66-.74,2.54-2.63-.76Z"/><path class="cls-1" d="M949.94,421.34a2.36,2.36,0,0,1,4.58,1.17,2.36,2.36,0,1,1-4.58-1.17ZM984.55,432l-25.38-6.44.88-3.48,25.38,6.45Z"/><path class="cls-1" d="M964.15,400.39c1.63-8,8.44-13.05,16.51-11.41s12.38,8.93,10.75,16.95S983,419,974.9,417.34,962.52,408.41,964.15,400.39Zm24.13,4.9a10.71,10.71,0,1,0-12.64,8.42A10.38,10.38,0,0,0,988.28,405.29Z"/><path class="cls-1" d="M969.41,375.42l4.2.56c-2.58-1.73-4.43-5.07-3.84-9.53.78-5.92,5.18-9,11.82-8.15l16.18,2.15L997.3,364l-15.52-2.05c-5.32-.7-8.65,1.51-9.25,6-.65,4.91,2.52,8.19,7.71,8.88l15.09,2-.46,3.55L968.94,379Z"/><path class="cls-2" d="M324.31,613.51c0-31.52,24-56,56.88-56,13.4,0,25.69,4.12,34.59,10.86l-6.67,10.85c-7.07-5.56-16.74-8.57-27.07-8.57-26,0-43.22,18.7-43.22,42.83S356,656.33,382,656.33c10.33,0,20-3,27.07-8.56l6.67,10.85c-8.9,6.73-21.19,10.85-34.59,10.85C348.3,669.47,324.31,645,324.31,613.51Z"/><path class="cls-2" d="M436.76,667.38V559.5h56.09v11.77H450.1v36.16h41.18V619.2H450.1v36.41h42.75v11.77Z"/><path class="cls-2" d="M547.49,559.5c21.45,0,35,12.1,35,31.64,0,17.14-10.39,28.51-27.39,31.06l35.57,45.18H573.71l-33.41-44H530.23v44H516.9V559.5Zm-17.26,52.57H543.9c15.56,0,24.78-7.91,24.78-20.93s-9.22-20.92-24.78-20.92H530.23Z"/><path class="cls-2" d="M607.89,559.5h30.6c21.12,0,35,12,35,31.78s-13.85,31.77-35,31.77H621.23v44.33H607.89Zm13.34,10.72v42.11h13.66c14.64,0,24.78-7.52,24.78-21.05s-10.14-21.06-24.78-21.06Z"/><polygon class="cls-3" points="658.6 271.68 681.49 329.11 743.75 245.97 718.56 186.26 658.6 271.68"/><polyline class="cls-3" points="225.87 449.15 188.81 350.97 156.93 515.53 180.68 515.53"/><polygon class="cls-3" points="168.86 110.43 163.19 197.79 181.78 332.35 188.81 350.97 225.87 449.15 225.87 449.15 225.87 449.15 235.78 475.4 250.99 515.68 344.25 234.56 168.86 110.43"/><polyline class="cls-3" points="180.68 515.68 225.87 449.15 210.83 409.31"/><polygon class="cls-3" points="742.76 163.53 792.74 141.31 751.66 122.97 736.99 71.36 751.66 122.97 792.74 141.31 792.74 141.31 792.74 141.31 818.29 152.71 842.12 198.23 840.66 155.3 749.07 59.93 666.13 138.42 742.76 163.53"/><polygon class="cls-3" points="145.01 209.76 163.19 197.79 168.86 110.43 145.01 209.76"/><polygon class="cls-3" points="658.6 271.68 718.56 186.26 666.13 138.42 749.07 59.93 559.37 14.18 719.14 88.25 559.37 14.18 372.37 1.5 225.87 54.5 168.86 110.43 344.25 234.56 344.25 234.56 344.25 234.56 599.48 415.19 599.48 415.19 599.48 415.19 620.96 430.4 742.92 515.68 630.21 312.13 658.6 271.68"/><polygon class="cls-3" points="344.25 234.56 250.99 515.68 267.89 515.68 348.74 330.97 497.08 343.46 525.51 363.64 549.37 515.68 554.31 515.68 599.48 415.19 344.25 234.56"/><polygon class="cls-3" points="630.21 312.13 742.92 515.68 755.85 515.68 684.07 335.6 684.07 335.6 684.07 335.6 658.6 271.68 630.21 312.13"/><polygon class="cls-3" points="842.28 202.93 842.12 198.23 818.29 152.71 792.74 141.31 742.76 163.53 666.13 138.42 718.56 186.26 743.75 245.97 798.66 331.04 832.96 331.39 845.08 316.74 836.64 296.21 845.08 316.74 852.76 307.44 842.28 202.93"/><polygon class="cls-3" points="554.31 515.68 564.18 515.68 620.96 430.4 599.48 415.19 554.31 515.68"/><line class="cls-3" x1="172.77" y1="514.53" x2="210.07" y2="408.31"/></g></g></svg>