<svg xmlns="http://www.w3.org/2000/svg" viewBox="0 0 429.88 33.02"><defs><style>.cls-1{fill:#3c3c3b;}.cls-2{fill:none;stroke:#f9b233;stroke-linecap:round;stroke-linejoin:round;stroke-width:0.5px;}.cls-3{fill:#1d1d1b;}</style></defs><title>Fichier 2</title><g id="Calque_2" data-name="Calque 2"><g id="Calque_1-2" data-name="Calque 1"><path class="cls-1" d="M42.1,22.31a7.55,7.55,0,0,1,7.79-7.67,7.94,7.94,0,0,1,4.74,1.49l-.92,1.49A6,6,0,0,0,50,16.44a5.69,5.69,0,0,0-5.92,5.87A5.68,5.68,0,0,0,50,28.18,6,6,0,0,0,53.71,27l.92,1.49A7.94,7.94,0,0,1,49.89,30,7.55,7.55,0,0,1,42.1,22.31Z"/><path class="cls-1" d="M56.9,29.69V14.91h7.68v1.61H58.72v5h5.65v1.61H58.72v5h5.86v1.61Z"/><path class="cls-1" d="M71.47,14.91c2.93,0,4.79,1.66,4.79,4.34a4.08,4.08,0,0,1-3.75,4.25l4.87,6.19H75.06l-4.58-6H69.1v6H67.27V14.91Zm-2.37,7.2H71c2.14,0,3.4-1.08,3.4-2.86s-1.26-2.87-3.4-2.87H69.1Z"/><path class="cls-1" d="M79.14,14.91h4.19c2.89,0,4.79,1.65,4.79,4.36s-1.9,4.35-4.79,4.35H81v6.07H79.14ZM81,16.38v5.77h1.87c2,0,3.39-1,3.39-2.88s-1.39-2.89-3.39-2.89Z"/><polygon class="cls-2" points="29.94 15.87 31.27 19.19 34.87 14.38 33.41 10.93 29.94 15.87"/><polyline class="cls-2" points="4.92 26.13 2.78 20.45 0.94 29.97 2.31 29.97"/><polygon class="cls-2" points="1.63 6.55 1.3 11.6 2.38 19.38 2.78 20.45 4.92 26.13 4.92 26.13 4.92 26.13 5.5 27.65 6.38 29.98 11.77 13.72 1.63 6.55"/><polyline class="cls-2" points="2.31 29.98 4.92 26.13 4.05 23.83"/><polygon class="cls-2" points="34.81 9.62 37.7 8.33 35.32 7.27 34.48 4.29 35.32 7.27 37.7 8.33 37.7 8.33 37.7 8.33 39.17 8.99 40.55 11.62 40.47 9.14 35.17 3.63 30.38 8.17 34.81 9.62"/><polygon class="cls-2" points="0.25 12.29 1.3 11.6 1.63 6.55 0.25 12.29"/><polygon class="cls-2" points="29.94 15.87 33.41 10.93 30.38 8.17 35.17 3.63 24.21 0.98 33.44 5.27 24.21 0.98 13.39 0.25 4.92 3.31 1.63 6.55 11.77 13.72 11.77 13.72 11.77 13.72 26.52 24.17 26.52 24.17 26.52 24.17 27.77 25.05 34.82 29.98 28.3 18.21 29.94 15.87"/><polygon class="cls-2" points="11.77 13.72 6.38 29.98 7.35 29.98 12.03 19.3 20.61 20.02 22.25 21.19 23.63 29.98 23.91 29.98 26.52 24.17 11.77 13.72"/><polygon class="cls-2" points="28.3 18.21 34.82 29.98 35.56 29.98 31.41 19.57 31.41 19.57 31.41 19.57 29.94 15.87 28.3 18.21"/><polygon class="cls-2" points="40.56 11.89 40.55 11.62 39.17 8.99 37.7 8.33 34.81 9.62 30.38 8.17 33.41 10.93 34.87 14.38 38.04 19.3 40.02 19.32 40.72 18.48 40.24 17.29 40.72 18.48 41.17 17.94 40.56 11.89"/><polygon class="cls-2" points="23.91 29.98 24.48 29.98 27.77 25.05 26.52 24.17 23.91 29.98"/><line class="cls-2" x1="1.9" y1="29.97" x2="4.06" y2="23.83"/><path class="cls-3" d="M91.14,29.69V19.14h.93v9.73h4.44v.82Z"/><path class="cls-3" d="M97.45,19.53a.6.6,0,0,1,.61-.59.65.65,0,0,1,.64.73,2.54,2.54,0,0,1-.94,1.74l-.22-.19A2.14,2.14,0,0,0,98,20.11.57.57,0,0,1,97.45,19.53Z"/><path class="cls-3" d="M102.94,22.94a3.48,3.48,0,1,1-3.62,3.48A3.44,3.44,0,0,1,102.94,22.94Zm0,6.16a2.68,2.68,0,1,0-2.69-2.68A2.6,2.6,0,0,0,102.94,29.1Z"/><path class="cls-3" d="M108.2,26.79V23.14h.89v3.49c0,1.78.54,2.51,1.86,2.51s1.85-.73,1.85-2.51V23.14h.9v3.65c0,2.11-.88,3.11-2.75,3.11S108.2,28.9,108.2,26.79Z"/><path class="cls-3" d="M115.89,23.14V20.7h.9v2.44h1.64v.68h-1.64V28c0,.73.3,1.12.82,1.12a1.1,1.1,0,0,0,.62-.18l.38.6a2,2,0,0,1-1.2.38c-1,0-1.52-.69-1.52-1.88v-4.2h-.66v-.68Z"/><path class="cls-3" d="M120.25,20.65a.58.58,0,0,1,.59.58.59.59,0,0,1-.59.6.6.6,0,0,1-.6-.6A.59.59,0,0,1,120.25,20.65Zm-.45,9V23.14h.9v6.55Z"/><path class="cls-3" d="M123,29.69v-11h.9v11Z"/><path class="cls-3" d="M128.48,24.42A5.37,5.37,0,0,1,134,18.94a5.54,5.54,0,0,1,3.4,1.1l-.48.75a4.56,4.56,0,0,0-2.86-.92,4.4,4.4,0,0,0-4.56,4.55A4.4,4.4,0,0,0,134.06,29a4.56,4.56,0,0,0,2.86-.92l.48.75a5.54,5.54,0,0,1-3.4,1.1A5.37,5.37,0,0,1,128.48,24.42Z"/><path class="cls-3" d="M142.07,22.94a3.48,3.48,0,1,1-3.62,3.48A3.44,3.44,0,0,1,142.07,22.94Zm0,6.16a2.68,2.68,0,1,0-2.69-2.68A2.59,2.59,0,0,0,142.07,29.1Z"/><path class="cls-3" d="M147.4,29.69v-11h.89v11Z"/><path class="cls-3" d="M150.55,29.69v-11h.89v11Z"/><path class="cls-3" d="M153.26,26.42a3.28,3.28,0,0,1,3.26-3.48,3,3,0,0,1,2.72,1.61V23.14h.9v6.55h-.9V28.28a3,3,0,0,1-2.72,1.62A3.29,3.29,0,0,1,153.26,26.42Zm3.47,2.69a2.53,2.53,0,0,0,2.56-2.69,2.56,2.56,0,1,0-5.11,0A2.53,2.53,0,0,0,156.73,29.11Z"/><path class="cls-3" d="M163.29,18.69v5.85a3.05,3.05,0,0,1,2.73-1.6,3.28,3.28,0,0,1,3.26,3.48A3.28,3.28,0,0,1,166,29.9a3.06,3.06,0,0,1-2.73-1.61v1.4h-.89v-11Zm0,7.73a2.56,2.56,0,1,0,5.11,0,2.56,2.56,0,1,0-5.11,0Z"/><path class="cls-3" d="M174.19,22.94a3.48,3.48,0,1,1-3.62,3.48A3.44,3.44,0,0,1,174.19,22.94Zm0,6.16a2.68,2.68,0,1,0-2.69-2.68A2.6,2.6,0,0,0,174.19,29.1Z"/><path class="cls-3" d="M179.52,23.14h.89v1.09a2,2,0,0,1,2-1.29,2.83,2.83,0,0,1,1.1.22l-.37.76a2.28,2.28,0,0,0-.9-.2,1.86,1.86,0,0,0-1.78,2v4h-.89Z"/><path class="cls-3" d="M183.85,26.42a3.28,3.28,0,0,1,3.26-3.48,3,3,0,0,1,2.72,1.61V23.14h.9v6.55h-.9V28.28a3,3,0,0,1-2.72,1.62A3.29,3.29,0,0,1,183.85,26.42Zm3.47,2.69a2.52,2.52,0,0,0,2.55-2.69,2.55,2.55,0,1,0-5.1,0A2.53,2.53,0,0,0,187.32,29.11Z"/><path class="cls-3" d="M193,23.14V20.7h.9v2.44h1.64v.68h-1.64V28c0,.73.29,1.12.82,1.12a1,1,0,0,0,.61-.18l.39.6a2,2,0,0,1-1.2.38c-1,0-1.52-.69-1.52-1.88v-4.2h-.66v-.68Z"/><path class="cls-3" d="M197.37,20.65a.58.58,0,0,1,.58.58.59.59,0,0,1-.58.6.6.6,0,0,1-.6-.6A.59.59,0,0,1,197.37,20.65Zm-.45,9V23.14h.89v6.55Z"/><path class="cls-3" d="M199.55,23.82v-.68h.65V20.77c0-1.51.7-2.27,1.75-2.27a1.73,1.73,0,0,1,1.4.64l-.47.53a1,1,0,0,0-.79-.37c-.61,0-1,.47-1,1.41v2.43h1.68v.68H201.1v5.87h-.9V23.82Z"/><path class="cls-3" d="M206.68,26.42A3.28,3.28,0,0,1,210,22.94a3,3,0,0,1,2.71,1.6V18.69h.9v11h-.9v-1.4A3,3,0,0,1,210,29.9,3.29,3.29,0,0,1,206.68,26.42Zm3.48,2.69a2.52,2.52,0,0,0,2.54-2.69,2.55,2.55,0,1,0-5.1,0A2.53,2.53,0,0,0,210.16,29.11Z"/><path class="cls-3" d="M215.41,19.53a.6.6,0,0,1,.61-.59.65.65,0,0,1,.63.73,2.5,2.5,0,0,1-.94,1.74l-.21-.19a2.14,2.14,0,0,0,.41-1.11A.57.57,0,0,1,215.41,19.53Z"/><path class="cls-3" d="M223.86,19.14V20h-4.37v4h4.22v.83h-4.22v4.05h4.37v.82h-5.3V19.14Zm-3.55-1.81,2.29-1.42.41.75-2.39,1.15Z"/><path class="cls-3" d="M225.53,23.14l2.41,5.26,2.41-5.26h1.06l-3.17,6.55h-.6l-3.17-6.55Z"/><path class="cls-3" d="M231.92,26.42a3.28,3.28,0,0,1,3.26-3.48,3,3,0,0,1,2.72,1.61V23.14h.9v6.55h-.9V28.28a3,3,0,0,1-2.72,1.62A3.29,3.29,0,0,1,231.92,26.42Zm3.47,2.69a2.52,2.52,0,0,0,2.55-2.69,2.55,2.55,0,1,0-5.1,0A2.53,2.53,0,0,0,235.39,29.11Z"/><path class="cls-3" d="M241.05,29.69v-11h.9v11Z"/><path class="cls-3" d="M244.1,26.79V23.14h.9v3.49c0,1.78.54,2.51,1.86,2.51s1.85-.73,1.85-2.51V23.14h.9v3.65c0,2.11-.89,3.11-2.75,3.11S244.1,28.9,244.1,26.79Z"/><path class="cls-3" d="M251.33,26.42a3.28,3.28,0,0,1,3.26-3.48,3,3,0,0,1,2.72,1.61V23.14h.89v6.55h-.89V28.28a3,3,0,0,1-2.72,1.62A3.28,3.28,0,0,1,251.33,26.42Zm3.47,2.69a2.52,2.52,0,0,0,2.55-2.69,2.55,2.55,0,1,0-5.1,0A2.53,2.53,0,0,0,254.8,29.11Z"/><path class="cls-3" d="M260.49,23.14V20.7h.9v2.44H263v.68h-1.64V28c0,.73.29,1.12.82,1.12a1.09,1.09,0,0,0,.61-.18l.38.6a2,2,0,0,1-1.19.38c-1,0-1.52-.69-1.52-1.88v-4.2h-.66v-.68Z"/><path class="cls-3" d="M264.84,20.65a.58.58,0,0,1,.59.58.59.59,0,0,1-.59.6.6.6,0,0,1-.59-.6A.59.59,0,0,1,264.84,20.65Zm-.44,9V23.14h.89v6.55Z"/><path class="cls-3" d="M270.68,22.94a3.48,3.48,0,1,1-3.62,3.48A3.44,3.44,0,0,1,270.68,22.94Zm0,6.16A2.68,2.68,0,1,0,268,26.42,2.6,2.6,0,0,0,270.68,29.1Z"/><path class="cls-3" d="M276.9,23.14V24.2a2.39,2.39,0,0,1,2.24-1.26c1.5,0,2.41,1,2.41,2.66v4.09h-.89V25.77c0-1.34-.66-2.1-1.81-2.1a2,2,0,0,0-2,2.21v3.81H276V23.14Z"/><path class="cls-3" d="M286.48,26.42a3.28,3.28,0,0,1,3.27-3.48,3,3,0,0,1,2.72,1.6V18.69h.89v11h-.89v-1.4a3.05,3.05,0,0,1-2.72,1.61A3.29,3.29,0,0,1,286.48,26.42ZM290,29.11a2.52,2.52,0,0,0,2.54-2.69,2.55,2.55,0,1,0-5.09,0A2.52,2.52,0,0,0,290,29.11Z"/><path class="cls-3" d="M295.52,26.79V23.14h.9v3.49c0,1.78.54,2.51,1.85,2.51s1.86-.73,1.86-2.51V23.14H301v3.65c0,2.11-.88,3.11-2.75,3.11S295.52,28.9,295.52,26.79Z"/><path class="cls-3" d="M309.16,19.14c2.09,0,3.36,1.18,3.36,3a2.89,2.89,0,0,1-2.87,3l3.52,4.57H312l-3.4-4.5h-1.2v4.5h-.93V19.14Zm-1.77,5.25h1.55c1.66,0,2.63-.88,2.63-2.25s-1-2.24-2.63-2.24h-1.55Z"/><path class="cls-3" d="M315,20.65a.58.58,0,0,1,.59.58.59.59,0,1,1-1.18,0A.58.58,0,0,1,315,20.65Zm-.45,9V23.14h.9v6.55Z"/><path class="cls-3" d="M317.57,28.23a2.11,2.11,0,0,0,1.82,1c.81,0,1.51-.4,1.51-1.22s-.74-1.13-1.74-1.5-1.85-.74-1.85-1.81a1.86,1.86,0,0,1,2.09-1.72,2.26,2.26,0,0,1,1.94,1l-.48.38a1.66,1.66,0,0,0-1.41-.69c-.79,0-1.29.42-1.29,1s.57.89,1.45,1.22c1.25.46,2.19,1,2.19,2.15s-.94,1.9-2.34,1.9A2.63,2.63,0,0,1,317,28.6Z"/><path class="cls-3" d="M323,26.42a3.28,3.28,0,0,1,3.26-3.48,3,3,0,0,1,2.72,1.6v-1.4h.89V33H329V28.29a3.05,3.05,0,0,1-2.72,1.61A3.28,3.28,0,0,1,323,26.42Zm3.47,2.69A2.53,2.53,0,0,0,329,26.42a2.55,2.55,0,1,0-5.1,0A2.53,2.53,0,0,0,326.49,29.11Z"/><path class="cls-3" d="M332.06,26.79V23.14H333v3.49c0,1.78.54,2.51,1.86,2.51s1.85-.73,1.85-2.51V23.14h.9v3.65c0,2.11-.89,3.11-2.75,3.11S332.06,28.9,332.06,26.79Z"/><path class="cls-3" d="M342.65,22.94a3.38,3.38,0,0,1,3.4,3.34,1.55,1.55,0,0,1,0,.22H340.1a2.57,2.57,0,0,0,2.71,2.65,2.77,2.77,0,0,0,2.35-1.22l.65.36a3.48,3.48,0,0,1-3,1.61,3.48,3.48,0,1,1-.12-7Zm-2.52,3h5a2.52,2.52,0,0,0-5,0Z"/><path class="cls-3" d="M350.56,26.42a3.27,3.27,0,0,1,3.26-3.48,3,3,0,0,1,2.72,1.6V18.69h.89v11h-.89v-1.4a3.05,3.05,0,0,1-2.72,1.61A3.28,3.28,0,0,1,350.56,26.42ZM354,29.11a2.53,2.53,0,0,0,2.55-2.69,2.55,2.55,0,1,0-5.1,0A2.52,2.52,0,0,0,354,29.11Z"/><path class="cls-3" d="M362.63,22.94A3.37,3.37,0,0,1,366,26.28v.22h-5.95a2.58,2.58,0,0,0,2.72,2.65,2.74,2.74,0,0,0,2.34-1.22l.66.36a3.48,3.48,0,0,1-3,1.61,3.48,3.48,0,1,1-.12-7Zm-2.52,3h5a2.52,2.52,0,0,0-5,0Z"/><path class="cls-3" d="M371,19.14h2.7c2.07,0,3.35,1.18,3.35,3s-1.28,3-3.35,3H372v4.48H371Zm.93.76v4.55h1.56c1.59,0,2.62-.87,2.62-2.28s-1-2.27-2.62-2.27Z"/><path class="cls-3" d="M378.54,23.14h.9v1.09a2,2,0,0,1,1.94-1.29,2.8,2.8,0,0,1,1.1.22l-.36.76a2.36,2.36,0,0,0-.91-.2,1.86,1.86,0,0,0-1.77,2v4h-.9Z"/><path class="cls-3" d="M386.28,22.94a3.38,3.38,0,0,1,3.39,3.34,1.55,1.55,0,0,1,0,.22h-5.94a2.57,2.57,0,0,0,2.71,2.65,2.77,2.77,0,0,0,2.35-1.22l.66.36a3.51,3.51,0,0,1-3.05,1.61,3.48,3.48,0,1,1-.11-7Zm-2.53,3h5a2.52,2.52,0,0,0-5,0Zm1.54-4.63,2.29-1.42.41.75-2.39,1.15Z"/><path class="cls-3" d="M391,26.42a3.28,3.28,0,0,1,3.26-3.48,3,3,0,0,1,2.72,1.6V18.69h.89v11h-.89v-1.4a3.05,3.05,0,0,1-2.72,1.61A3.28,3.28,0,0,1,391,26.42Zm3.47,2.69A2.53,2.53,0,0,0,397,26.42a2.55,2.55,0,1,0-5.1,0A2.53,2.53,0,0,0,394.43,29.11Z"/><path class="cls-3" d="M399.66,26.42a3.28,3.28,0,0,1,3.26-3.48,3,3,0,0,1,2.72,1.61V23.14h.89v6.55h-.89V28.28a3,3,0,0,1-2.72,1.62A3.28,3.28,0,0,1,399.66,26.42Zm3.47,2.69a2.52,2.52,0,0,0,2.55-2.69,2.55,2.55,0,1,0-5.1,0A2.53,2.53,0,0,0,403.13,29.11Z"/><path class="cls-3" d="M408.82,23.14V20.7h.9v2.44h1.64v.68h-1.64V28c0,.73.29,1.12.82,1.12a1.09,1.09,0,0,0,.61-.18l.38.6a2,2,0,0,1-1.19.38c-1,0-1.52-.69-1.52-1.88v-4.2h-.66v-.68Z"/><path class="cls-3" d="M413.17,20.65a.58.58,0,0,1,.59.58.59.59,0,0,1-.59.6.6.6,0,0,1-.59-.6A.59.59,0,0,1,413.17,20.65Zm-.45,9V23.14h.9v6.55Z"/><path class="cls-3" d="M419,22.94a3.48,3.48,0,1,1-3.62,3.48A3.44,3.44,0,0,1,419,22.94Zm0,6.16a2.68,2.68,0,1,0-2.69-2.68A2.6,2.6,0,0,0,419,29.1Z"/><path class="cls-3" d="M425.23,23.14V24.2a2.39,2.39,0,0,1,2.24-1.26c1.5,0,2.41,1,2.41,2.66v4.09H429V25.77c0-1.34-.66-2.1-1.81-2.1a2,2,0,0,0-1.95,2.21v3.81h-.89V23.14Z"/></g></g></svg>