<svg xmlns="http://www.w3.org/2000/svg" viewBox="0 0 430.13 33.27"><defs><style>.cls-1{fill:#3c3c3b;}.cls-2{fill:none;stroke:#f9b233;stroke-linecap:round;stroke-linejoin:round;}.cls-3{fill:#1d1d1b;}</style></defs><title>Fichier 1</title><g id="Calque_2" data-name="Calque 2"><g id="Calque_1-2" data-name="Calque 1"><path class="cls-1" d="M42.35,22.56a7.55,7.55,0,0,1,7.79-7.67,7.94,7.94,0,0,1,4.74,1.49L54,17.87a6,6,0,0,0-3.71-1.18,5.69,5.69,0,0,0-5.92,5.87,5.68,5.68,0,0,0,5.92,5.87A6,6,0,0,0,54,27.25l.92,1.49a7.94,7.94,0,0,1-4.74,1.49A7.55,7.55,0,0,1,42.35,22.56Z"/><path class="cls-1" d="M57.15,29.94V15.16h7.68v1.61H59v5h5.65v1.61H59v5h5.86v1.61Z"/><path class="cls-1" d="M71.72,15.16c2.93,0,4.79,1.66,4.79,4.34a4.08,4.08,0,0,1-3.75,4.25l4.87,6.19H75.31l-4.58-6H69.35v6H67.52V15.16Zm-2.37,7.2h1.87c2.14,0,3.4-1.08,3.4-2.86s-1.26-2.87-3.4-2.87H69.35Z"/><path class="cls-1" d="M79.39,15.16h4.19c2.89,0,4.79,1.65,4.79,4.36s-1.9,4.35-4.79,4.35H81.22v6.07H79.39Zm1.83,1.47V22.4h1.87c2,0,3.39-1,3.39-2.88s-1.39-2.89-3.39-2.89Z"/><polygon class="cls-2" points="30.19 16.12 31.52 19.44 35.12 14.63 33.66 11.18 30.19 16.12"/><polyline class="cls-2" points="5.17 26.38 3.03 20.7 1.19 30.22 2.56 30.22"/><polygon class="cls-2" points="1.88 6.8 1.55 11.85 2.63 19.63 3.03 20.7 5.17 26.38 5.17 26.38 5.17 26.38 5.75 27.9 6.63 30.23 12.02 13.97 1.88 6.8"/><polyline class="cls-2" points="2.56 30.23 5.17 26.38 4.3 24.08"/><polygon class="cls-2" points="35.06 9.87 37.95 8.58 35.57 7.52 34.73 4.54 35.57 7.52 37.95 8.58 37.95 8.58 37.95 8.58 39.42 9.24 40.8 11.87 40.72 9.39 35.42 3.88 30.63 8.42 35.06 9.87"/><polygon class="cls-2" points="0.5 12.54 1.55 11.85 1.88 6.8 0.5 12.54"/><polygon class="cls-2" points="30.19 16.12 33.66 11.18 30.63 8.42 35.42 3.88 24.46 1.23 33.69 5.52 24.46 1.23 13.64 0.5 5.17 3.56 1.88 6.8 12.02 13.97 12.02 13.97 12.02 13.97 26.77 24.42 26.77 24.42 26.77 24.42 28.02 25.3 35.07 30.23 28.55 18.46 30.19 16.12"/><polygon class="cls-2" points="12.02 13.97 6.63 30.23 7.6 30.23 12.28 19.55 20.86 20.27 22.5 21.44 23.88 30.23 24.16 30.23 26.77 24.42 12.02 13.97"/><polygon class="cls-2" points="28.55 18.46 35.07 30.23 35.81 30.23 31.66 19.82 31.66 19.82 31.66 19.82 30.19 16.12 28.55 18.46"/><polygon class="cls-2" points="40.81 12.14 40.8 11.87 39.42 9.24 37.95 8.58 35.06 9.87 30.63 8.42 33.66 11.18 35.12 14.63 38.29 19.55 40.27 19.57 40.97 18.73 40.49 17.54 40.97 18.73 41.42 18.19 40.81 12.14"/><polygon class="cls-2" points="24.16 30.23 24.73 30.23 28.02 25.3 26.77 24.42 24.16 30.23"/><line class="cls-2" x1="2.15" y1="30.22" x2="4.31" y2="24.08"/><path class="cls-3" d="M91.39,29.94V19.39h.93v9.73h4.44v.82Z"/><path class="cls-3" d="M97.7,19.78a.6.6,0,0,1,.61-.59.65.65,0,0,1,.64.73A2.54,2.54,0,0,1,98,21.66l-.22-.19a2.14,2.14,0,0,0,.41-1.11A.57.57,0,0,1,97.7,19.78Z"/><path class="cls-3" d="M103.19,23.19a3.48,3.48,0,1,1-3.62,3.48A3.44,3.44,0,0,1,103.19,23.19Zm0,6.16a2.68,2.68,0,1,0-2.69-2.68A2.6,2.6,0,0,0,103.19,29.35Z"/><path class="cls-3" d="M108.45,27V23.39h.89v3.49c0,1.78.54,2.51,1.86,2.51s1.85-.73,1.85-2.51V23.39h.9V27c0,2.11-.88,3.11-2.75,3.11S108.45,29.15,108.45,27Z"/><path class="cls-3" d="M116.14,23.39V21h.9v2.44h1.64v.68H117v4.16c0,.73.3,1.12.82,1.12a1.1,1.1,0,0,0,.62-.18l.38.6a2,2,0,0,1-1.2.38c-1,0-1.52-.69-1.52-1.88v-4.2h-.66v-.68Z"/><path class="cls-3" d="M120.5,20.9a.58.58,0,0,1,.59.58.59.59,0,0,1-.59.6.6.6,0,0,1-.6-.6A.59.59,0,0,1,120.5,20.9Zm-.45,9V23.39h.9v6.55Z"/><path class="cls-3" d="M123.23,29.94v-11h.9v11Z"/><path class="cls-3" d="M128.73,24.67a5.37,5.37,0,0,1,5.52-5.48,5.54,5.54,0,0,1,3.4,1.1l-.48.75a4.56,4.56,0,0,0-2.86-.92,4.4,4.4,0,0,0-4.56,4.55,4.4,4.4,0,0,0,4.56,4.55,4.56,4.56,0,0,0,2.86-.92l.48.75a5.54,5.54,0,0,1-3.4,1.1A5.37,5.37,0,0,1,128.73,24.67Z"/><path class="cls-3" d="M142.32,23.19a3.48,3.48,0,1,1-3.62,3.48A3.44,3.44,0,0,1,142.32,23.19Zm0,6.16a2.68,2.68,0,1,0-2.69-2.68A2.59,2.59,0,0,0,142.32,29.35Z"/><path class="cls-3" d="M147.65,29.94v-11h.89v11Z"/><path class="cls-3" d="M150.8,29.94v-11h.89v11Z"/><path class="cls-3" d="M153.51,26.67a3.28,3.28,0,0,1,3.26-3.48,3,3,0,0,1,2.72,1.61V23.39h.9v6.55h-.9V28.53a3,3,0,0,1-2.72,1.62A3.29,3.29,0,0,1,153.51,26.67ZM157,29.36a2.53,2.53,0,0,0,2.56-2.69,2.56,2.56,0,1,0-5.11,0A2.53,2.53,0,0,0,157,29.36Z"/><path class="cls-3" d="M163.54,18.94v5.85a3.05,3.05,0,0,1,2.73-1.6,3.28,3.28,0,0,1,3.26,3.48,3.28,3.28,0,0,1-3.26,3.48,3.06,3.06,0,0,1-2.73-1.61v1.4h-.89v-11Zm0,7.73a2.56,2.56,0,1,0,5.11,0,2.56,2.56,0,1,0-5.11,0Z"/><path class="cls-3" d="M174.44,23.19a3.48,3.48,0,1,1-3.62,3.48A3.44,3.44,0,0,1,174.44,23.19Zm0,6.16a2.68,2.68,0,1,0-2.69-2.68A2.6,2.6,0,0,0,174.44,29.35Z"/><path class="cls-3" d="M179.77,23.39h.89v1.09a2,2,0,0,1,2-1.29,2.83,2.83,0,0,1,1.1.22l-.37.76a2.28,2.28,0,0,0-.9-.2,1.86,1.86,0,0,0-1.78,2v4h-.89Z"/><path class="cls-3" d="M184.1,26.67a3.28,3.28,0,0,1,3.26-3.48,3,3,0,0,1,2.72,1.61V23.39h.9v6.55h-.9V28.53a3,3,0,0,1-2.72,1.62A3.29,3.29,0,0,1,184.1,26.67Zm3.47,2.69a2.52,2.52,0,0,0,2.55-2.69,2.55,2.55,0,1,0-5.1,0A2.53,2.53,0,0,0,187.57,29.36Z"/><path class="cls-3" d="M193.26,23.39V21h.9v2.44h1.64v.68h-1.64v4.16c0,.73.29,1.12.82,1.12a1,1,0,0,0,.61-.18l.39.6a2,2,0,0,1-1.2.38c-1,0-1.52-.69-1.52-1.88v-4.2h-.66v-.68Z"/><path class="cls-3" d="M197.62,20.9a.58.58,0,0,1,.58.58.59.59,0,0,1-.58.6.6.6,0,0,1-.6-.6A.59.59,0,0,1,197.62,20.9Zm-.45,9V23.39h.89v6.55Z"/><path class="cls-3" d="M199.8,24.07v-.68h.65V21c0-1.51.7-2.27,1.75-2.27a1.73,1.73,0,0,1,1.4.64l-.47.53a1,1,0,0,0-.79-.37c-.61,0-1,.47-1,1.41v2.43H203v.68h-1.68v5.87h-.9V24.07Z"/><path class="cls-3" d="M206.93,26.67a3.28,3.28,0,0,1,3.27-3.48,3,3,0,0,1,2.71,1.6V18.94h.9v11h-.9v-1.4a3,3,0,0,1-2.71,1.61A3.29,3.29,0,0,1,206.93,26.67Zm3.48,2.69A2.52,2.52,0,0,0,213,26.67a2.55,2.55,0,1,0-5.1,0A2.53,2.53,0,0,0,210.41,29.36Z"/><path class="cls-3" d="M215.66,19.78a.6.6,0,0,1,.61-.59.65.65,0,0,1,.63.73,2.5,2.5,0,0,1-.94,1.74l-.21-.19a2.14,2.14,0,0,0,.41-1.11A.57.57,0,0,1,215.66,19.78Z"/><path class="cls-3" d="M224.11,19.39v.82h-4.37v4H224v.83h-4.22v4.05h4.37v.82h-5.3V19.39Zm-3.55-1.81,2.29-1.42.41.75-2.39,1.15Z"/><path class="cls-3" d="M225.78,23.39l2.41,5.26,2.41-5.26h1.06l-3.17,6.55h-.6l-3.17-6.55Z"/><path class="cls-3" d="M232.17,26.67a3.28,3.28,0,0,1,3.26-3.48,3,3,0,0,1,2.72,1.61V23.39h.9v6.55h-.9V28.53a3,3,0,0,1-2.72,1.62A3.29,3.29,0,0,1,232.17,26.67Zm3.47,2.69a2.52,2.52,0,0,0,2.55-2.69,2.55,2.55,0,1,0-5.1,0A2.53,2.53,0,0,0,235.64,29.36Z"/><path class="cls-3" d="M241.3,29.94v-11h.9v11Z"/><path class="cls-3" d="M244.35,27V23.39h.9v3.49c0,1.78.54,2.51,1.86,2.51s1.85-.73,1.85-2.51V23.39h.9V27c0,2.11-.89,3.11-2.75,3.11S244.35,29.15,244.35,27Z"/><path class="cls-3" d="M251.58,26.67a3.28,3.28,0,0,1,3.26-3.48,3,3,0,0,1,2.72,1.61V23.39h.89v6.55h-.89V28.53a3,3,0,0,1-2.72,1.62A3.28,3.28,0,0,1,251.58,26.67Zm3.47,2.69a2.52,2.52,0,0,0,2.55-2.69,2.55,2.55,0,1,0-5.1,0A2.53,2.53,0,0,0,255.05,29.36Z"/><path class="cls-3" d="M260.74,23.39V21h.9v2.44h1.64v.68h-1.64v4.16c0,.73.29,1.12.82,1.12a1.09,1.09,0,0,0,.61-.18l.38.6a2,2,0,0,1-1.19.38c-1,0-1.52-.69-1.52-1.88v-4.2h-.66v-.68Z"/><path class="cls-3" d="M265.09,20.9a.58.58,0,0,1,.59.58.59.59,0,0,1-.59.6.6.6,0,0,1-.59-.6A.59.59,0,0,1,265.09,20.9Zm-.44,9V23.39h.89v6.55Z"/><path class="cls-3" d="M270.93,23.19a3.48,3.48,0,1,1-3.62,3.48A3.44,3.44,0,0,1,270.93,23.19Zm0,6.16a2.68,2.68,0,1,0-2.69-2.68A2.6,2.6,0,0,0,270.93,29.35Z"/><path class="cls-3" d="M277.15,23.39v1.06a2.39,2.39,0,0,1,2.24-1.26c1.5,0,2.41,1,2.41,2.66v4.09h-.89V26c0-1.34-.66-2.1-1.81-2.1a2,2,0,0,0-2,2.21v3.81h-.89V23.39Z"/><path class="cls-3" d="M286.73,26.67A3.28,3.28,0,0,1,290,23.19a3,3,0,0,1,2.72,1.6V18.94h.89v11h-.89v-1.4A3.05,3.05,0,0,1,290,30.15,3.29,3.29,0,0,1,286.73,26.67Zm3.48,2.69a2.52,2.52,0,0,0,2.54-2.69,2.55,2.55,0,1,0-5.09,0A2.52,2.52,0,0,0,290.21,29.36Z"/><path class="cls-3" d="M295.77,27V23.39h.9v3.49c0,1.78.54,2.51,1.85,2.51s1.86-.73,1.86-2.51V23.39h.89V27c0,2.11-.88,3.11-2.75,3.11S295.77,29.15,295.77,27Z"/><path class="cls-3" d="M309.41,19.39c2.09,0,3.36,1.18,3.36,3a2.89,2.89,0,0,1-2.87,3l3.52,4.57h-1.18l-3.4-4.5h-1.2v4.5h-.93V19.39Zm-1.77,5.25h1.55c1.66,0,2.63-.88,2.63-2.25s-1-2.24-2.63-2.24h-1.55Z"/><path class="cls-3" d="M315.2,20.9a.58.58,0,0,1,.59.58.59.59,0,1,1-1.18,0A.58.58,0,0,1,315.2,20.9Zm-.45,9V23.39h.9v6.55Z"/><path class="cls-3" d="M317.82,28.48a2.11,2.11,0,0,0,1.82,1c.81,0,1.51-.4,1.51-1.22s-.74-1.13-1.74-1.5-1.85-.74-1.85-1.81a1.86,1.86,0,0,1,2.09-1.72,2.26,2.26,0,0,1,1.94,1l-.48.38a1.66,1.66,0,0,0-1.41-.69c-.79,0-1.29.42-1.29,1s.57.89,1.45,1.22c1.25.46,2.19,1,2.19,2.15s-.94,1.9-2.34,1.9a2.63,2.63,0,0,1-2.42-1.3Z"/><path class="cls-3" d="M323.27,26.67a3.28,3.28,0,0,1,3.26-3.48,3,3,0,0,1,2.72,1.6v-1.4h.89v9.88h-.89V28.54a3.05,3.05,0,0,1-2.72,1.61A3.28,3.28,0,0,1,323.27,26.67Zm3.47,2.69a2.53,2.53,0,0,0,2.55-2.69,2.55,2.55,0,1,0-5.1,0A2.53,2.53,0,0,0,326.74,29.36Z"/><path class="cls-3" d="M332.31,27V23.39h.89v3.49c0,1.78.54,2.51,1.86,2.51s1.85-.73,1.85-2.51V23.39h.9V27c0,2.11-.89,3.11-2.75,3.11S332.31,29.15,332.31,27Z"/><path class="cls-3" d="M342.9,23.19a3.38,3.38,0,0,1,3.4,3.34,1.55,1.55,0,0,1,0,.22h-5.94a2.57,2.57,0,0,0,2.71,2.65,2.77,2.77,0,0,0,2.35-1.22l.65.36a3.48,3.48,0,0,1-3,1.61,3.48,3.48,0,1,1-.12-7Zm-2.52,3h5a2.52,2.52,0,0,0-5,0Z"/><path class="cls-3" d="M350.81,26.67a3.27,3.27,0,0,1,3.26-3.48,3,3,0,0,1,2.72,1.6V18.94h.89v11h-.89v-1.4a3.05,3.05,0,0,1-2.72,1.61A3.28,3.28,0,0,1,350.81,26.67Zm3.47,2.69a2.53,2.53,0,0,0,2.55-2.69,2.55,2.55,0,1,0-5.1,0A2.52,2.52,0,0,0,354.28,29.36Z"/><path class="cls-3" d="M362.88,23.19a3.37,3.37,0,0,1,3.39,3.34v.22h-5.95A2.58,2.58,0,0,0,363,29.4a2.74,2.74,0,0,0,2.34-1.22l.66.36a3.48,3.48,0,0,1-3,1.61,3.48,3.48,0,1,1-.12-7Zm-2.52,3h5a2.52,2.52,0,0,0-5,0Z"/><path class="cls-3" d="M371.28,19.39H374c2.07,0,3.35,1.18,3.35,3s-1.28,3-3.35,3h-1.77v4.48h-.93Zm.93.76V24.7h1.56c1.59,0,2.62-.87,2.62-2.28s-1-2.27-2.62-2.27Z"/><path class="cls-3" d="M378.79,23.39h.9v1.09a2,2,0,0,1,1.94-1.29,2.8,2.8,0,0,1,1.1.22l-.36.76a2.36,2.36,0,0,0-.91-.2,1.86,1.86,0,0,0-1.77,2v4h-.9Z"/><path class="cls-3" d="M386.53,23.19a3.38,3.38,0,0,1,3.39,3.34,1.55,1.55,0,0,1,0,.22H384a2.57,2.57,0,0,0,2.71,2.65A2.77,2.77,0,0,0,389,28.18l.66.36a3.51,3.51,0,0,1-3.05,1.61,3.48,3.48,0,1,1-.11-7Zm-2.53,3h5a2.52,2.52,0,0,0-5,0Zm1.54-4.63,2.29-1.42.41.75-2.39,1.15Z"/><path class="cls-3" d="M391.21,26.67a3.28,3.28,0,0,1,3.26-3.48,3,3,0,0,1,2.72,1.6V18.94h.89v11h-.89v-1.4a3.05,3.05,0,0,1-2.72,1.61A3.28,3.28,0,0,1,391.21,26.67Zm3.47,2.69a2.53,2.53,0,0,0,2.55-2.69,2.55,2.55,0,1,0-5.1,0A2.53,2.53,0,0,0,394.68,29.36Z"/><path class="cls-3" d="M399.91,26.67a3.28,3.28,0,0,1,3.26-3.48,3,3,0,0,1,2.72,1.61V23.39h.89v6.55h-.89V28.53a3,3,0,0,1-2.72,1.62A3.28,3.28,0,0,1,399.91,26.67Zm3.47,2.69a2.52,2.52,0,0,0,2.55-2.69,2.55,2.55,0,1,0-5.1,0A2.53,2.53,0,0,0,403.38,29.36Z"/><path class="cls-3" d="M409.07,23.39V21h.9v2.44h1.64v.68H410v4.16c0,.73.29,1.12.82,1.12a1.09,1.09,0,0,0,.61-.18l.38.6a2,2,0,0,1-1.19.38c-1,0-1.52-.69-1.52-1.88v-4.2h-.66v-.68Z"/><path class="cls-3" d="M413.42,20.9a.58.58,0,0,1,.59.58.59.59,0,0,1-.59.6.6.6,0,0,1-.59-.6A.59.59,0,0,1,413.42,20.9Zm-.45,9V23.39h.9v6.55Z"/><path class="cls-3" d="M419.26,23.19a3.48,3.48,0,1,1-3.62,3.48A3.44,3.44,0,0,1,419.26,23.19Zm0,6.16a2.68,2.68,0,1,0-2.69-2.68A2.6,2.6,0,0,0,419.26,29.35Z"/><path class="cls-3" d="M425.48,23.39v1.06a2.39,2.39,0,0,1,2.24-1.26c1.5,0,2.41,1,2.41,2.66v4.09h-.89V26c0-1.34-.66-2.1-1.81-2.1a2,2,0,0,0-1.95,2.21v3.81h-.89V23.39Z"/></g></g></svg>