<svg xmlns="http://www.w3.org/2000/svg" viewBox="0 0 4534.19 696.83"><defs><style>.cls-1{fill:#fff;}.cls-2{fill:none;stroke:#f9b233;stroke-linecap:round;stroke-linejoin:round;stroke-width:3px;}</style></defs><title>Fichier 10</title><g id="Calque_2" data-name="Calque 2"><g id="Calque_1-2" data-name="Calque 1"><path class="cls-1" d="M945.82,555.51c0-65.94,50.2-117.1,119-117.1,28,0,53.75,8.62,72.36,22.71l-14,22.7c-14.77-11.62-35-17.92-56.63-17.92-54.44,0-90.41,39.13-90.41,89.61s36,89.59,90.41,89.59c21.62,0,41.86-6.29,56.63-17.92l14,22.71c-18.61,14.08-44.32,22.71-72.36,22.71C996,672.6,945.82,621.44,945.82,555.51Z"/><path class="cls-1" d="M1171.84,668.22V442.51h117.37v24.63h-89.46v75.64h86.18v24.63h-86.18v76.18h89.46v24.63Z"/><path class="cls-1" d="M1394.34,442.51c44.87,0,73.18,25.31,73.18,66.21,0,35.84-21.75,59.64-57.31,65l74.41,94.53H1449.2l-69.9-92.06h-21.07v92.06h-27.91V442.51Zm-36.11,110h28.59c32.55,0,51.84-16.56,51.84-43.78S1419.37,465,1386.82,465h-28.59Z"/><path class="cls-1" d="M1511.5,442.51h64c44.18,0,73.18,25.18,73.18,66.49s-29,66.48-73.18,66.48H1539.4v92.74h-27.9ZM1539.4,465V553H1568c30.65,0,51.85-15.73,51.85-44S1598.64,465,1568,465Z"/><path class="cls-1" d="M1665.67,669.17V581.41h7.77v80.9h36.91v6.86Z"/><path class="cls-1" d="M1719.11,584.7a4.94,4.94,0,0,1,5.05-4.88c2.88,0,5.32,2.07,5.32,6.06,0,4.83-3.46,10.9-7.82,14.41l-1.81-1.54a17.28,17.28,0,0,0,3.41-9.25A4.78,4.78,0,0,1,1719.11,584.7Z"/><path class="cls-1" d="M1765.7,613c17,0,30.1,11.8,30.1,28.93s-13.08,28.93-30.1,28.93-30.11-11.81-30.11-28.93S1748.68,613,1765.7,613Zm0,51.21c12.92,0,22.39-9.3,22.39-22.28s-9.47-22.29-22.39-22.29-22.39,9.31-22.39,22.29S1752.77,664.22,1765.7,664.22Z"/><path class="cls-1" d="M1810.36,645.08V614.71h7.45v29c0,14.78,4.46,20.85,15.42,20.85s15.43-6.07,15.43-20.85v-29h7.44v30.37c0,17.5-7.34,25.79-22.87,25.79S1810.36,662.58,1810.36,645.08Z"/><path class="cls-1" d="M1875.29,614.71V594.38h7.5v20.33h13.61v5.69h-13.61v34.52c0,6.06,2.45,9.35,6.81,9.35a9.32,9.32,0,0,0,5.1-1.48l3.2,5c-2.24,1.86-6.17,3.13-10,3.13-8,0-12.66-5.69-12.66-15.58V620.4h-5.48v-5.69Z"/><path class="cls-1" d="M1912.46,594a4.92,4.92,0,0,1,0,9.84,4.92,4.92,0,1,1,0-9.84Zm-3.72,75.21V614.71h7.44v54.46Z"/><path class="cls-1" d="M1936.12,669.17V577.69h7.45v91.48Z"/><path class="cls-1" d="M1983.71,625.35c0-25.75,19.36-45.53,45.9-45.53,11,0,20.9,3.35,28.24,9.08l-4,6.28c-6.23-5-14.63-7.71-23.73-7.71-22.65,0-38,16.59-38,37.88s15.33,37.86,38,37.86c9.1,0,17.5-2.71,23.73-7.71l4,6.28c-7.34,5.74-17.23,9.09-28.24,9.09C2003.07,670.87,1983.71,651.09,1983.71,625.35Z"/><path class="cls-1" d="M2097.67,613c17,0,30.1,11.8,30.1,28.93s-13.08,28.93-30.1,28.93-30.11-11.81-30.11-28.93S2080.65,613,2097.67,613Zm0,51.21c12.93,0,22.39-9.3,22.39-22.28s-9.46-22.29-22.39-22.29-22.39,9.31-22.39,22.29S2084.74,664.22,2097.67,664.22Z"/><path class="cls-1" d="M2142.92,669.17V577.69h7.44v91.48Z"/><path class="cls-1" d="M2170,669.17V577.69h7.45v91.48Z"/><path class="cls-1" d="M2193.54,641.94c0-16.59,11.54-28.93,27.12-28.93a25.19,25.19,0,0,1,22.6,13.4v-11.7h7.45v54.46h-7.45v-11.7a25.19,25.19,0,0,1-22.6,13.4C2205.08,670.87,2193.54,658.53,2193.54,641.94Zm28.88,22.45c12.39,0,21.22-9.37,21.22-22.45s-8.83-22.45-21.22-22.45-21.23,9.36-21.23,22.45S2210.08,664.39,2222.42,664.39Z"/><path class="cls-1" d="M2277.88,577.69v48.66A25.27,25.27,0,0,1,2300.53,613c15.59,0,27.13,12.28,27.13,28.93s-11.54,28.93-27.13,28.93a25.27,25.27,0,0,1-22.65-13.34v11.64h-7.45V577.69Zm-.32,64.25c0,13.08,8.83,22.45,21.22,22.45S2320,655,2320,641.94s-8.93-22.45-21.22-22.45S2277.56,628.8,2277.56,641.94Z"/><path class="cls-1" d="M2369.45,613c17,0,30.1,11.8,30.1,28.93s-13.08,28.93-30.1,28.93-30.11-11.81-30.11-28.93S2352.43,613,2369.45,613Zm0,51.21c12.92,0,22.39-9.3,22.39-22.28s-9.47-22.29-22.39-22.29-22.4,9.31-22.4,22.29S2356.52,664.22,2369.45,664.22Z"/><path class="cls-1" d="M2414.69,614.71h7.45v9c3-7.45,8.93-10.74,16.17-10.74a22.67,22.67,0,0,1,9.14,1.86l-3,6.33a19,19,0,0,0-7.55-1.71c-7.77,0-14.73,6.59-14.73,16.75v32.93h-7.45Z"/><path class="cls-1" d="M2451.65,641.94c0-16.59,11.54-28.93,27.13-28.93a25.2,25.2,0,0,1,22.6,13.4v-11.7h7.45v54.46h-7.45v-11.7a25.2,25.2,0,0,1-22.6,13.4C2463.19,670.87,2451.65,658.53,2451.65,641.94Zm28.88,22.45c12.39,0,21.22-9.37,21.22-22.45s-8.83-22.45-21.22-22.45-21.22,9.36-21.22,22.45S2468.19,664.39,2480.53,664.39Z"/><path class="cls-1" d="M2528.75,614.71V594.38h7.5v20.33h13.62v5.69h-13.62v34.52c0,6.06,2.45,9.35,6.81,9.35a9.3,9.3,0,0,0,5.1-1.48l3.19,5c-2.23,1.86-6.16,3.13-9.95,3.13-8,0-12.65-5.69-12.65-15.58V620.4h-5.48v-5.69Z"/><path class="cls-1" d="M2565.92,594a4.92,4.92,0,0,1,0,9.84,4.92,4.92,0,1,1,0-9.84Zm-3.72,75.21V614.71h7.44v54.46Z"/><path class="cls-1" d="M2585,620.4v-5.69h5.42V595c0-12.56,5.8-18.89,14.52-18.89a14.57,14.57,0,0,1,11.7,5.37l-4,4.42a7.93,7.93,0,0,0-6.54-3.14c-5.06,0-8.25,3.94-8.25,11.76v20.21h14v5.69h-14v48.77h-7.45V620.4Z"/><path class="cls-1" d="M2646.21,641.94c0-16.65,11.54-28.93,27.12-28.93a25.28,25.28,0,0,1,22.61,13.34V577.69h7.45v91.48h-7.45V657.53a25.28,25.28,0,0,1-22.61,13.34C2657.75,670.87,2646.21,658.59,2646.21,641.94Zm28.88,22.45c12.34,0,21.17-9.37,21.17-22.45s-8.83-22.45-21.17-22.45-21.22,9.36-21.22,22.45S2662.75,664.39,2675.09,664.39Z"/><path class="cls-1" d="M2719.7,584.7a4.94,4.94,0,0,1,5.05-4.88c2.88,0,5.32,2.07,5.32,6.06,0,4.83-3.46,10.9-7.82,14.41l-1.81-1.54a17.11,17.11,0,0,0,3.4-9.25A4.78,4.78,0,0,1,2719.7,584.7Z"/><path class="cls-1" d="M2790.91,581.41v6.86h-36.33v33.51h35.06v6.86h-35.06v33.67h36.33v6.86h-44.09V581.41Zm-29.52-15.06,19.05-11.8,3.4,6.27L2764,570.35Z"/><path class="cls-1" d="M2805.73,614.71l20.06,43.77,20-43.77h8.78l-26.33,54.46h-5L2797,614.71Z"/><path class="cls-1" d="M2859.82,641.94c0-16.59,11.54-28.93,27.12-28.93a25.22,25.22,0,0,1,22.61,13.4v-11.7H2917v54.46h-7.44v-11.7a25.22,25.22,0,0,1-22.61,13.4C2871.36,670.87,2859.82,658.53,2859.82,641.94Zm28.88,22.45c12.39,0,21.22-9.37,21.22-22.45s-8.83-22.45-21.22-22.45-21.22,9.36-21.22,22.45S2876.36,664.39,2888.7,664.39Z"/><path class="cls-1" d="M2936.72,669.17V577.69h7.44v91.48Z"/><path class="cls-1" d="M2963,645.08V614.71h7.44v29c0,14.78,4.47,20.85,15.43,20.85s15.42-6.07,15.42-20.85v-29h7.45v30.37c0,17.5-7.34,25.79-22.87,25.79S2963,662.58,2963,645.08Z"/><path class="cls-1" d="M3024,641.94c0-16.59,11.54-28.93,27.12-28.93a25.22,25.22,0,0,1,22.61,13.4v-11.7h7.45v54.46h-7.45v-11.7a25.22,25.22,0,0,1-22.61,13.4C3035.57,670.87,3024,658.53,3024,641.94Zm28.88,22.45c12.39,0,21.22-9.37,21.22-22.45s-8.83-22.45-21.22-22.45-21.22,9.36-21.22,22.45S3040.57,664.39,3052.91,664.39Z"/><path class="cls-1" d="M3101.13,614.71V594.38h7.51v20.33h13.61v5.69h-13.61v34.52c0,6.06,2.44,9.35,6.8,9.35a9.35,9.35,0,0,0,5.11-1.48l3.18,5c-2.22,1.86-6.16,3.13-9.94,3.13-8,0-12.66-5.69-12.66-15.58V620.4h-5.48v-5.69Z"/><path class="cls-1" d="M3138.3,594a4.92,4.92,0,0,1,0,9.84,4.92,4.92,0,1,1,0-9.84Zm-3.72,75.21V614.71H3142v54.46Z"/><path class="cls-1" d="M3187.76,613c17,0,30.11,11.8,30.11,28.93s-13.09,28.93-30.11,28.93-30.1-11.81-30.1-28.93S3170.74,613,3187.76,613Zm0,51.21c12.92,0,22.4-9.3,22.4-22.28s-9.48-22.29-22.4-22.29-22.39,9.31-22.39,22.29S3174.84,664.22,3187.76,664.22Z"/><path class="cls-1" d="M3240.45,614.71v8.83c2.87-5.8,9.25-10.53,18.62-10.53,12.45,0,20,8.24,20,22.17v34h-7.45V636.56c0-11.16-5.48-17.44-15-17.44-10.31,0-16.22,7.44-16.22,18.35v31.7H3233V614.71Z"/><path class="cls-1" d="M3322,641.94c0-16.65,11.54-28.93,27.12-28.93a25.28,25.28,0,0,1,22.61,13.34V577.69h7.45v91.48h-7.45V657.53a25.28,25.28,0,0,1-22.61,13.34C3333.56,670.87,3322,658.59,3322,641.94Zm28.88,22.45c12.34,0,21.17-9.37,21.17-22.45s-8.83-22.45-21.17-22.45-21.22,9.36-21.22,22.45S3338.56,664.39,3350.9,664.39Z"/><path class="cls-1" d="M3398.12,645.08V614.71h7.44v29c0,14.78,4.47,20.85,15.43,20.85s15.42-6.07,15.42-20.85v-29h7.45v30.37c0,17.5-7.34,25.79-22.87,25.79S3398.12,662.58,3398.12,645.08Z"/><path class="cls-1" d="M3513.4,581.41c17.35,0,27.93,9.84,27.93,25,0,14.57-9.78,23.51-23.88,24.73l29.31,38h-9.84l-28.3-37.39h-9.95v37.39h-7.77V581.41Zm-14.73,43.72h12.92c13.78,0,21.82-7.34,21.82-18.72s-8-18.67-21.82-18.67h-12.92Z"/><path class="cls-1" d="M3562.48,594a4.92,4.92,0,0,1,0,9.84,4.92,4.92,0,1,1,0-9.84Zm-3.72,75.21V614.71h7.45v54.46Z"/><path class="cls-1" d="M3585.19,657.05a17.52,17.52,0,0,0,15.16,8c6.76,0,12.55-3.29,12.55-10.16,0-6.65-6.17-9.35-14.46-12.49-7.09-2.72-15.43-6.13-15.43-15,0-8.14,7.13-14.3,17.44-14.3,6.86,0,12.61,2.87,16.12,8l-4,3.14a14,14,0,0,0-11.71-5.68c-6.65,0-10.79,3.51-10.79,8.56,0,5.37,4.78,7.4,12.12,10.1,10.32,3.89,18.14,8.19,18.14,17.93,0,10.16-7.76,15.74-19.42,15.74-8.24,0-15.64-3-20.16-10.8Z"/><path class="cls-1" d="M3631.45,641.94c0-16.65,11.54-28.93,27.12-28.93a25.28,25.28,0,0,1,22.61,13.34V614.71h7.44v82.12h-7.44v-39.3a25.28,25.28,0,0,1-22.61,13.34C3643,670.87,3631.45,658.59,3631.45,641.94Zm28.88,22.45c12.34,0,21.17-9.37,21.17-22.45s-8.83-22.45-21.17-22.45-21.22,9.36-21.22,22.45S3648,664.39,3660.33,664.39Z"/><path class="cls-1" d="M3707.55,645.08V614.71H3715v29c0,14.78,4.47,20.85,15.43,20.85s15.42-6.07,15.42-20.85v-29h7.44v30.37c0,17.5-7.34,25.79-22.86,25.79S3707.55,662.58,3707.55,645.08Z"/><path class="cls-1" d="M3796.62,613a28.09,28.09,0,0,1,28.19,27.81,17.26,17.26,0,0,1-.06,1.81h-49.4c0,12.87,9.36,22,22.55,22a22.86,22.86,0,0,0,19.51-10.11l5.48,3c-5.21,8.4-14.51,13.34-25.31,13.34-17.35,0-29.74-12.49-29.74-28.67A28.76,28.76,0,0,1,3796.62,613Zm-21,25.16h41.86c-1.12-11.28-10-19.53-20.95-19.53A20.92,20.92,0,0,0,3775.61,638.17Z"/><path class="cls-1" d="M3864.2,641.94c0-16.65,11.55-28.93,27.13-28.93a25.28,25.28,0,0,1,22.61,13.34V577.69h7.44v91.48h-7.44V657.53a25.28,25.28,0,0,1-22.61,13.34C3875.75,670.87,3864.2,658.59,3864.2,641.94Zm28.88,22.45c12.34,0,21.17-9.37,21.17-22.45s-8.83-22.45-21.17-22.45-21.22,9.36-21.22,22.45S3880.74,664.39,3893.08,664.39Z"/><path class="cls-1" d="M3965.56,613a28.1,28.1,0,0,1,28.2,27.81,17.26,17.26,0,0,1-.06,1.81h-49.41c0,12.87,9.36,22,22.55,22a22.89,22.89,0,0,0,19.52-10.11l5.48,3c-5.22,8.4-14.52,13.34-25.32,13.34-17.34,0-29.73-12.49-29.73-28.67A28.75,28.75,0,0,1,3965.56,613Zm-21,25.16h41.86c-1.13-11.28-10-19.53-21-19.53A20.92,20.92,0,0,0,3944.56,638.17Z"/><path class="cls-1" d="M4037.24,581.41h22.5c17.18,0,27.87,9.84,27.87,25.26s-10.69,25.27-27.87,25.27H4045v37.23h-7.77Zm7.77,6.33v37.87h13c13.24,0,21.75-7.23,21.75-18.94s-8.51-18.93-21.75-18.93Z"/><path class="cls-1" d="M4100.68,614.71h7.44v9c3-7.45,8.94-10.74,16.18-10.74a22.7,22.7,0,0,1,9.14,1.86l-3,6.33a19,19,0,0,0-7.55-1.71c-7.76,0-14.74,6.59-14.74,16.75v32.93h-7.44Z"/><path class="cls-1" d="M4165.93,613a28.1,28.1,0,0,1,28.2,27.81,17.26,17.26,0,0,1-.06,1.81h-49.41c0,12.87,9.36,22,22.55,22a22.89,22.89,0,0,0,19.52-10.11l5.48,3c-5.22,8.4-14.52,13.34-25.32,13.34-17.34,0-29.73-12.49-29.73-28.67A28.75,28.75,0,0,1,4165.93,613Zm-21,25.16h41.86c-1.13-11.28-10-19.53-21-19.53A20.92,20.92,0,0,0,4144.93,638.17Zm12.81-38.51,19-11.82,3.4,6.28-19.83,9.52Z"/><path class="cls-1" d="M4205.81,641.94c0-16.65,11.54-28.93,27.12-28.93a25.28,25.28,0,0,1,22.62,13.34V577.69H4263v91.48h-7.44V657.53a25.28,25.28,0,0,1-22.62,13.34C4217.35,670.87,4205.81,658.59,4205.81,641.94Zm28.88,22.45c12.34,0,21.17-9.37,21.17-22.45s-8.83-22.45-21.17-22.45-21.22,9.36-21.22,22.45S4222.35,664.39,4234.69,664.39Z"/><path class="cls-1" d="M4279.09,641.94c0-16.59,11.54-28.93,27.12-28.93a25.22,25.22,0,0,1,22.61,13.4v-11.7h7.45v54.46h-7.45v-11.7a25.22,25.22,0,0,1-22.61,13.4C4290.63,670.87,4279.09,658.53,4279.09,641.94ZM4308,664.39c12.39,0,21.22-9.37,21.22-22.45s-8.83-22.45-21.22-22.45-21.22,9.36-21.22,22.45S4295.63,664.39,4308,664.39Z"/><path class="cls-1" d="M4356.19,614.71V594.38h7.51v20.33h13.61v5.69H4363.7v34.52c0,6.06,2.44,9.35,6.8,9.35a9.33,9.33,0,0,0,5.11-1.48l3.19,5c-2.23,1.86-6.17,3.13-9.95,3.13-8,0-12.66-5.69-12.66-15.58V620.4h-5.48v-5.69Z"/><path class="cls-1" d="M4393.36,594a4.92,4.92,0,0,1,0,9.84,4.92,4.92,0,1,1,0-9.84Zm-3.72,75.21V614.71h7.45v54.46Z"/><path class="cls-1" d="M4442.82,613c17,0,30.11,11.8,30.11,28.93s-13.09,28.93-30.11,28.93-30.1-11.81-30.1-28.93S4425.8,613,4442.82,613Zm0,51.21c12.92,0,22.4-9.3,22.4-22.28s-9.48-22.29-22.4-22.29-22.39,9.31-22.39,22.29S4429.9,664.22,4442.82,664.22Z"/><path class="cls-1" d="M4495.52,614.71v8.83c2.87-5.8,9.25-10.53,18.62-10.53,12.45,0,20,8.24,20,22.17v34h-7.45V636.56c0-11.16-5.48-17.44-15-17.44-10.31,0-16.22,7.44-16.22,18.35v31.7h-7.44V614.71Z"/><polygon class="cls-2" points="663.62 349.82 693.13 423.85 773.39 316.66 740.92 239.69 663.62 349.82"/><polyline class="cls-2" points="105.75 578.61 57.96 452.04 16.87 664.19 47.49 664.19"/><polygon class="cls-2" points="32.24 141.93 24.94 254.55 48.9 428.03 57.96 452.04 105.75 578.61 105.75 578.61 105.75 578.61 118.53 612.46 138.13 664.39 258.37 301.96 32.24 141.93"/><polyline class="cls-2" points="47.49 664.39 105.75 578.61 86.36 527.25"/><polygon class="cls-2" points="772.12 210.39 836.56 181.74 783.59 158.11 764.68 91.57 783.59 158.11 836.56 181.74 836.56 181.74 836.56 181.74 869.5 196.43 900.22 255.13 898.33 199.78 780.26 76.83 673.34 178.02 772.12 210.39"/><polygon class="cls-2" points="1.5 269.99 24.94 254.55 32.24 141.93 1.5 269.99"/><polygon class="cls-2" points="663.62 349.82 740.92 239.69 673.34 178.02 780.26 76.83 535.7 17.84 741.67 113.34 535.7 17.84 294.61 1.5 105.75 69.83 32.24 141.93 258.37 301.96 258.37 301.96 258.37 301.96 587.41 534.83 587.41 534.83 587.41 534.83 615.1 554.43 772.33 664.39 627.02 401.96 663.62 349.82"/><polygon class="cls-2" points="258.37 301.96 138.13 664.39 159.91 664.39 264.15 426.25 455.39 442.36 492.04 468.37 522.8 664.39 529.17 664.39 587.41 534.83 258.37 301.96"/><polygon class="cls-2" points="627.02 401.96 772.33 664.39 789 664.39 696.46 432.22 696.46 432.22 696.46 432.22 663.62 349.82 627.02 401.96"/><polygon class="cls-2" points="900.42 261.18 900.22 255.13 869.5 196.43 836.56 181.74 772.12 210.39 673.34 178.02 740.92 239.69 773.39 316.66 844.19 426.34 888.4 426.79 904.03 407.9 893.16 381.44 904.03 407.9 913.93 395.92 900.42 261.18"/><polygon class="cls-2" points="529.17 664.39 541.9 664.39 615.1 554.43 587.41 534.83 529.17 664.39"/><line class="cls-2" x1="37.29" y1="662.9" x2="85.37" y2="525.96"/></g></g></svg>