<svg xmlns="http://www.w3.org/2000/svg" viewBox="0 0 15758.03 3090.25"><defs><style>.cls-1,.cls-3,.cls-4{fill:none;}.cls-2{fill:#1a1a1a;}.cls-3,.cls-4{stroke:#f9b233;stroke-linecap:round;stroke-linejoin:round;}.cls-3{stroke-width:10px;}.cls-4{stroke-width:6px;}</style></defs><title>Fichier 2</title><g id="Calque_2" data-name="Calque 2"><g id="Calque_1-2" data-name="Calque 1"><path class="cls-1" d="M13640.72,2835c-40.73,0-70,30.89-70,74.09s29.31,74.08,70,74.08,69.88-30.89,69.88-74.08C13710.6,2865.69,13681.45,2835,13640.72,2835Z"/><path class="cls-1" d="M13879.74,2832.15c-36.51,0-65.85,27.57-69,64.44h138.17C13945.23,2859.37,13915.92,2832.15,13879.74,2832.15Z"/><path class="cls-1" d="M9618.14,2835c-40.73,0-70,30.89-70,74.09s29.3,74.08,70,74.08,69.89-30.89,69.89-74.08C9688,2865.69,9658.88,2835,9618.14,2835Z"/><path class="cls-1" d="M14185.33,2730.14h-42.85v125h42.85c43.72,0,71.8-23.88,71.8-62.5S14229.05,2730.14,14185.33,2730.14Z"/><ellipse class="cls-1" cx="8975.58" cy="2909.06" rx="70.05" ry="74.09"/><ellipse class="cls-1" cx="8608.71" cy="2909.06" rx="73.92" ry="73.56"/><path class="cls-1" d="M12872,2835c-40.73,0-70,30.89-70,74.09s29.31,74.08,70,74.08,69.88-30.89,69.88-74.08C12941.92,2865.69,12912.77,2835,12872,2835Z"/><path class="cls-1" d="M10323.62,2835c-40.73,0-70,30.89-70,74.09s29.31,74.08,70,74.08c40.91,0,70.07-30.89,70.07-74.08C10393.69,2865.69,10364.53,2835,10323.62,2835Z"/><path class="cls-1" d="M11850.11,2835c-40.73,0-70,30.89-70,74.09s29.31,74.08,70,74.08,69.88-30.89,69.88-74.08C11920,2865.69,11890.84,2835,11850.11,2835Z"/><ellipse class="cls-1" cx="11311.31" cy="2909.06" rx="73.92" ry="73.56"/><path class="cls-1" d="M10865.92,2835c-40.73,0-70,30.89-70,74.09s29.31,74.08,70,74.08c40.92,0,70.07-30.89,70.07-74.08C10936,2865.69,10906.84,2835,10865.92,2835Z"/><path class="cls-1" d="M13321.8,2832.15c-36.51,0-65.85,27.57-69,64.44H13391C13387.28,2859.37,13358,2832.15,13321.8,2832.15Z"/><path class="cls-1" d="M5534.68,2469.13c0-89.88-63.7-144.54-171.19-144.54h-94.41v289.08h94.41C5471,2613.67,5534.68,2559,5534.68,2469.13Z"/><ellipse class="cls-1" cx="6614.76" cy="2909.06" rx="73.92" ry="73.56"/><ellipse class="cls-1" cx="15456.29" cy="2909.06" rx="73.92" ry="73.56"/><path class="cls-1" d="M12452.82,2791.77c0-37.4-26.51-61.63-72-61.63h-42.67v123.44h42.67C12426.31,2853.58,12452.82,2829.35,12452.82,2791.77Z"/><ellipse class="cls-1" cx="7711.13" cy="2909.06" rx="73.92" ry="73.56"/><path class="cls-1" d="M14768.92,2835c-40.73,0-70,30.89-70,74.09s29.31,74.08,70,74.08,69.89-30.89,69.89-74.08C14838.81,2865.69,14809.65,2835,14768.92,2835Z"/><path class="cls-1" d="M14541.5,2832.15c-36.51,0-65.85,27.57-69,64.44h138.17C14607,2859.37,14577.67,2832.15,14541.5,2832.15Z"/><path class="cls-1" d="M5961.83,2324.59h-94.4v290.9h94.4c101.19,0,171.2-51.95,171.2-145.45S6063,2324.59,5961.83,2324.59Z"/><ellipse class="cls-1" cx="8123.13" cy="2909.06" rx="70.05" ry="74.09"/><ellipse class="cls-1" cx="8375.32" cy="2909.06" rx="70.05" ry="74.09"/><path class="cls-1" d="M15010.93,2835c-40.73,0-70,30.89-70,74.09s29.31,74.08,70,74.08c40.92,0,70.07-30.89,70.07-74.08C15081,2865.69,15051.85,2835,15010.93,2835Z"/><path class="cls-2" d="M4305.91,2327.76c71.38,0,138.21,20.76,187,59.17l46.07-75c-61.43-46.53-146.36-75-238.95-75-227.2,0-393,168.93-393,386.65s165.77,386.65,393,386.65c92.59,0,177.52-28.47,238.95-75l-46.07-75c-48.8,38.4-115.63,59.18-187,59.18-179.78,0-298.57-129.18-298.57-295.86S4126.13,2327.76,4305.91,2327.76Z"/><polygon class="cls-2" points="4653.55 2995.81 5041.09 2995.81 5041.09 2914.51 4745.69 2914.51 4745.69 2662.92 5030.26 2662.92 5030.26 2581.61 4745.69 2581.61 4745.69 2331.82 5041.09 2331.82 5041.09 2250.51 4653.55 2250.51 4653.55 2995.81"/><path class="cls-2" d="M5630,2469.13c0-135.06-93.5-218.61-241.66-218.61H5176.94v745.29h92.14v-304h69.56l230.81,304h117l-245.72-312.13C5558.17,2666.07,5630,2587.47,5630,2469.13Zm-360.9,144.54V2324.59h94.41c107.49,0,171.19,54.66,171.19,144.54s-63.7,144.54-171.19,144.54Z"/><path class="cls-2" d="M5986.67,2250.52H5775.29v745.29h92.14V2689.56h119.24c145.9,0,241.66-83.11,241.66-219.52S6132.57,2250.52,5986.67,2250.52Zm-24.84,365h-94.4v-290.9h94.4c101.19,0,171.2,51.95,171.2,145.45S6063,2615.49,5961.83,2615.49Z"/><polygon class="cls-2" points="6310.08 2709.25 6284.45 2709.25 6284.45 2998.95 6431.94 2998.95 6431.94 2976.31 6310.08 2976.31 6310.08 2709.25"/><path class="cls-2" d="M6477.64,2704a16.35,16.35,0,0,0-16.69,16.16,15.73,15.73,0,0,0,13.7,15.8c-.71,11.77-5.62,23.7-11.23,30.55l6,5.1c14.39-11.59,25.8-31.6,25.8-47.58C6495.19,2710.82,6487.12,2704,6477.64,2704Z"/><path class="cls-2" d="M6614.76,2813.54c-56.18,0-99.38,39-99.38,95.52s43.2,95.51,99.38,95.51,99.38-39,99.38-95.51S6671,2813.54,6614.76,2813.54Zm0,169.08c-42.67,0-73.92-30.73-73.92-73.56s31.25-73.57,73.92-73.57,73.92,30.73,73.92,73.57S6657.43,2982.62,6614.76,2982.62Z"/><path class="cls-2" d="M6888.73,2915c0,48.81-14.76,68.82-50.92,68.82s-50.92-20-50.92-68.82v-95.87h-24.58v100.26c0,57.77,24.23,85.15,75.5,85.15s75.49-27.38,75.49-85.15V2819.16h-24.57Z"/><path class="cls-2" d="M7024,2982.8c-14.39,0-22.47-10.89-22.47-30.91V2837.94h44.95v-18.78h-44.95v-67.07h-24.76v67.07h-18.08v18.78h18.08v115.19c0,32.66,15.46,51.44,41.8,51.44,12.47,0,25.46-4.22,32.83-10.36l-10.54-16.33A30.54,30.54,0,0,1,7024,2982.8Z"/><path class="cls-2" d="M7099.48,2750.69a16.24,16.24,0,1,0,16.15,16.15A16.25,16.25,0,0,0,7099.48,2750.69Z"/><rect class="cls-2" x="7087.2" y="2819.16" width="24.57" height="179.79"/><rect class="cls-2" x="7177.63" y="2696.95" width="24.58" height="302"/><path class="cls-2" d="M7488.1,2729.26c30,0,57.76,9,78.31,25.46l13.16-20.72c-24.23-19-56.88-30-93.23-30-87.61,0-151.53,65.33-151.53,150.3s63.92,150.3,151.53,150.3c36.35,0,69-11.07,93.23-30l-13.16-20.72c-20.55,16.51-48.29,25.46-78.31,25.46-74.81,0-125.36-54.78-125.36-125S7413.29,2729.26,7488.1,2729.26Z"/><path class="cls-2" d="M7711.13,2813.54c-56.18,0-99.38,39-99.38,95.52s43.2,95.51,99.38,95.51,99.38-39,99.38-95.51S7767.32,2813.54,7711.13,2813.54Zm0,169.08c-42.67,0-73.92-30.73-73.92-73.56s31.25-73.57,73.92-73.57,73.92,30.73,73.92,73.57S7753.8,2982.62,7711.13,2982.62Z"/><rect class="cls-2" x="7860.62" y="2696.95" width="24.58" height="302"/><rect class="cls-2" x="7950.18" y="2696.95" width="24.58" height="302"/><path class="cls-2" d="M8192,2857.78c-15.27-27.91-42.66-44.24-74.61-44.24-51.45,0-89.55,40.73-89.55,95.52s38.1,95.51,89.55,95.51c31.95,0,59.34-16.33,74.61-44.24V2999h24.58V2819.16H8192Zm-68.83,125.36c-40.73,0-70.05-30.89-70.05-74.08s29.32-74.09,70.05-74.09c40.92,0,70.06,30.72,70.06,74.09C8193.19,2952.25,8164.05,2983.14,8123.13,2983.14Z"/><path class="cls-2" d="M8381.11,2813.54c-32.13,0-59.53,16.33-74.8,44.07V2697h-24.58v302h24.58V2960.5c15.27,27.74,42.67,44.07,74.8,44.07,51.44,0,89.54-40.56,89.54-95.51S8432.55,2813.54,8381.11,2813.54Zm-5.79,169.6c-40.91,0-70-30.89-70-74.08,0-43.37,29.14-74.09,70-74.09,40.56,0,70.06,30.89,70.06,74.09S8415.88,2983.14,8375.32,2983.14Z"/><path class="cls-2" d="M8608.71,2813.54c-56.18,0-99.37,39-99.37,95.52s43.19,95.51,99.37,95.51,99.38-39,99.38-95.51S8664.9,2813.54,8608.71,2813.54Zm0,169.08c-42.67,0-73.91-30.73-73.91-73.56s31.24-73.57,73.91-73.57,73.92,30.73,73.92,73.57S8651.39,2982.62,8608.71,2982.62Z"/><path class="cls-2" d="M8782.77,2849v-29.85h-24.59V2999h24.59V2890.28c0-33.55,23-55.31,48.64-55.31a63,63,0,0,1,24.92,5.62l10-20.91a75.2,75.2,0,0,0-30.19-6.14C8812.26,2813.54,8792.77,2824.42,8782.77,2849Z"/><path class="cls-2" d="M9044.41,2857.78c-15.27-27.91-42.66-44.24-74.61-44.24-51.45,0-89.55,40.73-89.55,95.52s38.1,95.51,89.55,95.51c32,0,59.34-16.33,74.61-44.24V2999H9069V2819.16h-24.58Zm-68.83,125.36c-40.73,0-70-30.89-70-74.08s29.32-74.09,70-74.09c40.92,0,70.06,30.72,70.06,74.09C9045.64,2952.25,9016.5,2983.14,8975.58,2983.14Z"/><path class="cls-2" d="M9182.11,2982.8c-14.39,0-22.47-10.89-22.47-30.91V2837.94h45v-18.78h-45v-67.07h-24.75v67.07H9116.8v18.78h18.09v115.19c0,32.66,15.45,51.44,41.79,51.44,12.47,0,25.46-4.22,32.83-10.36L9199,2977.88A30.52,30.52,0,0,1,9182.11,2982.8Z"/><path class="cls-2" d="M9257.63,2750.69a16.24,16.24,0,1,0,16.15,16.15A16.26,16.26,0,0,0,9257.63,2750.69Z"/><rect class="cls-2" x="9245.35" y="2819.16" width="24.57" height="179.79"/><path class="cls-2" d="M9338.6,2754v65.15h-17.92v18.78h17.92v161h24.59v-161h46.16v-18.78h-46.16v-66.72c0-25.81,10.52-38.8,27.21-38.8,7.54,0,15.79,2.63,21.58,10.36l13.18-14.58c-10.19-12.64-24.41-17.73-38.62-17.73C9357.74,2691.69,9338.6,2712.58,9338.6,2754Z"/><path class="cls-2" d="M9687,2857.61c-15.27-27.74-42.67-44.07-74.62-44.07-51.45,0-89.53,40.56-89.53,95.52s38.08,95.51,89.53,95.51c31.95,0,59.35-16.33,74.62-44.07V2999h24.57V2697H9687Zm-68.84,125.53c-40.73,0-70-30.89-70-74.08s29.3-74.09,70-74.09,69.89,30.72,69.89,74.09C9688,2952.25,9658.88,2983.14,9618.14,2983.14Z"/><path class="cls-2" d="M9782.21,2704a16.36,16.36,0,0,0-16.69,16.16,15.74,15.74,0,0,0,13.7,15.8c-.71,11.77-5.63,23.7-11.24,30.55l6,5.1c14.37-11.59,25.79-31.6,25.79-47.58C9799.75,2710.82,9791.69,2704,9782.21,2704Z"/><polygon class="cls-2" points="9855.08 2998.95 10000.64 2998.95 10000.64 2976.31 9880.72 2976.31 9880.72 2865.15 9996.42 2865.15 9996.42 2842.51 9880.72 2842.51 9880.72 2731.89 10000.64 2731.89 10000.64 2709.25 9855.08 2709.25 9855.08 2998.95"/><polygon class="cls-2" points="9977.3 2641.29 9966.06 2620.59 9903.2 2659.56 9911.82 2672.72 9977.3 2641.29"/><polygon class="cls-2" points="10115.87 2963.66 10049.68 2819.16 10020.71 2819.16 10107.62 2998.95 10124.12 2998.95 10211.03 2819.16 10182.06 2819.16 10115.87 2963.66"/><path class="cls-2" d="M10392.46,2857.78c-15.27-27.91-42.67-44.24-74.63-44.24-51.44,0-89.56,40.73-89.56,95.52s38.12,95.51,89.56,95.51c32,0,59.36-16.33,74.63-44.24V2999H10417V2819.16h-24.57Zm-68.84,125.36c-40.73,0-70-30.89-70-74.08s29.31-74.09,70-74.09c40.91,0,70.07,30.72,70.07,74.09C10393.69,2952.25,10364.53,2983.14,10323.62,2983.14Z"/><rect class="cls-2" x="10482.23" y="2696.95" width="24.6" height="302"/><path class="cls-2" d="M10695.58,2915c0,48.81-14.74,68.82-50.92,68.82s-50.92-20-50.92-68.82v-95.87h-24.57v100.26c0,57.77,24.23,85.15,75.49,85.15s75.49-27.38,75.49-85.15V2819.16h-24.57Z"/><path class="cls-2" d="M10934.76,2857.78c-15.27-27.91-42.67-44.24-74.62-44.24-51.45,0-89.56,40.73-89.56,95.52s38.11,95.51,89.56,95.51c32,0,59.35-16.33,74.62-44.24V2999h24.57V2819.16h-24.57Zm-68.84,125.36c-40.73,0-70-30.89-70-74.08s29.31-74.09,70-74.09c40.92,0,70.07,30.72,70.07,74.09C10936,2952.25,10906.84,2983.14,10865.92,2983.14Z"/><path class="cls-2" d="M11072.47,2982.8c-14.38,0-22.47-10.89-22.47-30.91V2837.94h45v-18.78h-45v-67.07h-24.76v67.07h-18.07v18.78h18.07v115.19c0,32.66,15.46,51.44,41.78,51.44,12.47,0,25.46-4.22,32.85-10.36l-10.53-16.33A30.65,30.65,0,0,1,11072.47,2982.8Z"/><path class="cls-2" d="M11148,2750.69a16.24,16.24,0,1,0,16.13,16.15A16.1,16.1,0,0,0,11148,2750.69Z"/><rect class="cls-2" x="11135.71" y="2819.16" width="24.6" height="179.79"/><path class="cls-2" d="M11311.31,2813.54c-56.18,0-99.38,39-99.38,95.52s43.2,95.51,99.38,95.51,99.38-39,99.38-95.51S11367.5,2813.54,11311.31,2813.54Zm0,169.08c-42.67,0-73.92-30.73-73.92-73.56s31.25-73.57,73.92-73.57,73.92,30.73,73.92,73.57S11354,2982.62,11311.31,2982.62Z"/><path class="cls-2" d="M11546.83,2813.54c-30.91,0-52,15.62-61.45,34.76v-29.14h-24.6V2999h24.6V2894.31c0-36,19.49-60.57,53.54-60.57,31.43,0,49.5,20.72,49.5,57.58V2999h24.6v-112.2C11613,2840.76,11587.9,2813.54,11546.83,2813.54Z"/><path class="cls-2" d="M11919,2857.61c-15.27-27.74-42.67-44.07-74.63-44.07-51.44,0-89.56,40.56-89.56,95.52s38.12,95.51,89.56,95.51c32,0,59.36-16.33,74.63-44.07V2999h24.57V2697H11919Zm-68.84,125.53c-40.73,0-70-30.89-70-74.08s29.31-74.09,70-74.09,69.88,30.72,69.88,74.09C11920,2952.25,11890.84,2983.14,11850.11,2983.14Z"/><path class="cls-2" d="M12132.51,2915c0,48.81-14.74,68.82-50.92,68.82s-50.92-20-50.92-68.82v-95.87h-24.57v100.26c0,57.77,24.23,85.15,75.49,85.15s75.49-27.38,75.49-85.15V2819.16h-24.57Z"/><path class="cls-2" d="M12479,2791.77c0-50-34.95-82.52-92.18-82.52h-74.29V2999h25.65V2875.51H12371l93.4,123.44h32.48l-96.76-125.53C12446.69,2869.37,12479,2839.88,12479,2791.77Zm-140.82,61.81V2730.14h42.67c45.47,0,72,24.23,72,61.63,0,37.58-26.51,61.81-72,61.81Z"/><path class="cls-2" d="M12548.93,2750.69a16.24,16.24,0,1,0,16.13,16.15A16.26,16.26,0,0,0,12548.93,2750.69Z"/><rect class="cls-2" x="12536.62" y="2819.16" width="24.6" height="179.79"/><path class="cls-2" d="M12680.08,2893.43c-24.23-9-40-15.62-40-33.36,0-16.68,13.7-28.27,35.65-28.27,15.8,0,29.16,6.14,38.64,18.79l13.14-10.36c-11.57-17-30.54-26.52-53.19-26.52-34,0-57.58,20.38-57.58,47.24,0,29.33,27.56,40.56,50.93,49.51,27.37,10.36,47.75,19.31,47.75,41.27,0,22.64-19.15,33.52-41.44,33.52-19.49,0-37.75-7.89-50.06-26.34l-14.56,10c14.93,25.63,39.34,35.63,66.56,35.63,38.45,0,64.06-18.44,64.06-52C12740,2920.46,12714.16,2906.24,12680.08,2893.43Z"/><path class="cls-2" d="M12940.88,2857.61c-15.27-27.74-42.67-44.07-74.63-44.07-51.44,0-89.56,40.56-89.56,95.52s38.12,95.51,89.56,95.51c32,0,59.36-16.33,74.63-44.07v129.75h24.56V2819.16h-24.56ZM12872,2983.14c-40.73,0-70-30.89-70-74.08s29.31-74.09,70-74.09,69.88,30.72,69.88,74.09C12941.92,2952.25,12912.77,2983.14,12872,2983.14Z"/><path class="cls-2" d="M13154.44,2915c0,48.81-14.74,68.82-50.92,68.82s-50.92-20-50.92-68.82v-95.87H13028v100.26c0,57.77,24.23,85.15,75.49,85.15s75.49-27.38,75.49-85.15V2819.16h-24.57Z"/><path class="cls-2" d="M13322.17,2813.54c-52.15,0-95,41.61-95,96.39,0,53.39,40.92,94.64,98.15,94.64,35.65,0,66.37-16.33,83.58-44.07l-18.1-9.84c-14.75,21.43-37.22,33.36-64.43,33.36-43.54,0-74.45-30.19-74.45-72.69H13415a58.88,58.88,0,0,0,.19-6C13415,2856.38,13375,2813.54,13322.17,2813.54Zm-69.36,83.05c3.14-36.87,32.48-64.44,69-64.44,36.17,0,65.48,27.22,69.18,64.44Z"/><path class="cls-2" d="M13709.56,2857.61c-15.27-27.74-42.67-44.07-74.63-44.07-51.45,0-89.56,40.56-89.56,95.52s38.11,95.51,89.56,95.51c32,0,59.36-16.33,74.63-44.07V2999h24.56V2697h-24.56Zm-68.84,125.53c-40.73,0-70-30.89-70-74.08s29.31-74.09,70-74.09,69.88,30.72,69.88,74.09C13710.6,2952.25,13681.45,2983.14,13640.72,2983.14Z"/><path class="cls-2" d="M13880.11,2813.54c-52.15,0-95,41.61-95,96.39,0,53.39,40.91,94.64,98.14,94.64,35.65,0,66.38-16.33,83.59-44.07l-18.1-9.84c-14.75,21.43-37.22,33.36-64.44,33.36-43.53,0-74.44-30.19-74.44-72.69H13973c.18-1.92.18-3.68.18-6C13973,2856.38,13932.94,2813.54,13880.11,2813.54Zm-69.36,83.05c3.14-36.87,32.48-64.44,69-64.44,36.18,0,65.49,27.22,69.18,64.44Z"/><path class="cls-2" d="M14191.12,2709.25h-74.29V2999h25.65v-122.9h48.64c56.71,0,92-32.49,92-83.4S14247.83,2709.25,14191.12,2709.25Zm-5.79,145.9h-42.85v-125h42.85c43.72,0,71.8,23.87,71.8,62.51S14229.05,2855.15,14185.33,2855.15Z"/><path class="cls-2" d="M14351,2849v-29.85h-24.6V2999h24.6V2890.28c0-33.55,23-55.31,48.61-55.31a63.05,63.05,0,0,1,24.94,5.62l10-20.91a75.29,75.29,0,0,0-30.2-6.14C14380.46,2813.54,14361,2824.42,14351,2849Z"/><polygon class="cls-2" points="14588.91 2751.21 14577.67 2730.49 14514.81 2769.47 14523.43 2782.63 14588.91 2751.21"/><path class="cls-2" d="M14541.87,2813.54c-52.15,0-95,41.61-95,96.39,0,53.39,40.92,94.64,98.15,94.64,35.65,0,66.38-16.33,83.59-44.07l-18.11-9.84c-14.74,21.43-37.22,33.36-64.43,33.36-43.54,0-74.44-30.19-74.44-72.69h163.1a58.88,58.88,0,0,0,.19-6C14634.72,2856.38,14594.7,2813.54,14541.87,2813.54Zm-69.36,83.05c3.14-36.87,32.48-64.44,69-64.44,36.17,0,65.48,27.22,69.18,64.44Z"/><path class="cls-2" d="M14837.76,2857.61c-15.27-27.74-42.67-44.07-74.63-44.07-51.44,0-89.56,40.56-89.56,95.52s38.12,95.51,89.56,95.51c32,0,59.36-16.33,74.63-44.07V2999h24.57V2697h-24.57Zm-68.84,125.53c-40.73,0-70-30.89-70-74.08s29.31-74.09,70-74.09,69.89,30.72,69.89,74.09C14838.81,2952.25,14809.65,2983.14,14768.92,2983.14Z"/><path class="cls-2" d="M15079.77,2857.78c-15.27-27.91-42.67-44.24-74.62-44.24-51.45,0-89.56,40.73-89.56,95.52s38.11,95.51,89.56,95.51c32,0,59.35-16.33,74.62-44.24V2999h24.57V2819.16h-24.57Zm-68.84,125.36c-40.73,0-70-30.89-70-74.08s29.31-74.09,70-74.09c40.92,0,70.07,30.72,70.07,74.09C15081,2952.25,15051.85,2983.14,15010.93,2983.14Z"/><path class="cls-2" d="M15217.45,2982.8c-14.38,0-22.47-10.89-22.47-30.91V2837.94h44.94v-18.78H15195v-67.07h-24.76v67.07h-18.07v18.78h18.07v115.19c0,32.66,15.46,51.44,41.78,51.44,12.47,0,25.46-4.22,32.85-10.36l-10.53-16.33A30.65,30.65,0,0,1,15217.45,2982.8Z"/><rect class="cls-2" x="15280.69" y="2819.16" width="24.6" height="179.79"/><path class="cls-2" d="M15293,2750.69a16.24,16.24,0,1,0,16.13,16.15A16.1,16.1,0,0,0,15293,2750.69Z"/><path class="cls-2" d="M15456.29,2813.54c-56.18,0-99.38,39-99.38,95.52s43.2,95.51,99.38,95.51,99.38-39,99.38-95.51S15512.48,2813.54,15456.29,2813.54Zm0,169.08c-42.67,0-73.92-30.73-73.92-73.56s31.25-73.57,73.92-73.57,73.92,30.73,73.92,73.57S15499,2982.62,15456.29,2982.62Z"/><path class="cls-2" d="M15691.84,2813.54c-30.91,0-52,15.62-61.45,34.76v-29.14h-24.6V2999h24.6V2894.31c0-36,19.49-60.57,53.54-60.57,31.43,0,49.5,20.72,49.5,57.58V2999h24.6v-112.2C15758,2840.76,15732.91,2813.54,15691.84,2813.54Z"/><polygon class="cls-3" points="3012.07 1586.92 3146.07 1923.13 3510.59 1436.34 3363.14 1086.77 3012.07 1586.92"/><polyline class="cls-3" points="478.45 2625.97 261.43 2051.15 74.81 3014.65 213.86 3014.65"/><polygon class="cls-3" points="144.63 642.76 111.45 1154.26 220.27 1942.12 261.43 2051.15 478.45 2625.97 478.45 2625.97 478.45 2625.97 536.49 2779.7 625.54 3015.54 1171.58 1369.57 144.63 642.76"/><polyline class="cls-3" points="213.86 3015.54 478.45 2625.97 390.39 2392.73"/><polygon class="cls-3" points="3504.82 953.68 3797.47 823.56 3556.92 716.23 3471.04 414.04 3556.92 716.23 3797.47 823.56 3797.47 823.56 3797.47 823.56 3947.05 890.3 4086.57 1156.85 4078.01 905.51 3541.77 347.1 3056.18 806.68 3504.82 953.68"/><polygon class="cls-3" points="5 1224.36 111.45 1154.26 144.63 642.76 5 1224.36"/><polygon class="cls-3" points="3012.07 1586.92 3363.14 1086.77 3056.18 806.68 3541.77 347.1 2431.08 79.23 3366.54 512.95 2431.08 79.23 1336.17 5 478.45 315.31 144.63 642.76 1171.58 1369.57 1171.58 1369.57 1171.58 1369.57 2665.94 2427.17 2665.94 2427.17 2665.94 2427.17 2791.7 2516.17 3505.78 3015.53 2845.86 1823.72 3012.07 1586.92"/><polygon class="cls-3" points="1171.58 1369.57 625.54 3015.54 724.45 3015.54 1197.86 1934.01 2066.39 2007.18 2232.81 2125.33 2372.51 3015.54 2401.43 3015.54 2665.94 2427.17 1171.58 1369.57"/><polygon class="cls-3" points="2845.86 1823.72 3505.78 3015.53 3581.46 3015.53 3161.21 1961.13 3161.21 1961.13 3161.21 1961.13 3012.07 1586.92 2845.86 1823.72"/><polygon class="cls-3" points="4087.5 1184.35 4086.57 1156.85 3947.05 890.3 3797.47 823.56 3504.82 953.68 3056.18 806.68 3363.14 1086.77 3510.59 1436.34 3832.13 1934.41 4032.93 1936.49 4103.89 1850.69 4054.51 1730.52 4103.89 1850.69 4148.88 1796.29 4087.5 1184.35"/><polygon class="cls-3" points="2401.43 3015.54 2459.26 3015.54 2791.7 2516.17 2665.94 2427.17 2401.43 3015.54"/><line class="cls-4" x1="172.02" y1="3014.65" x2="390.39" y2="2392.73"/></g></g></svg>