<svg xmlns="http://www.w3.org/2000/svg" viewBox="0 0 931.98 931.98"><defs><style>.cls-1,.cls-2,.cls-5{fill:none;}.cls-1{stroke:#000;}.cls-1,.cls-2,.cls-4,.cls-5{stroke-linecap:round;stroke-linejoin:round;}.cls-2{stroke:#3c3c3b;stroke-width:2px;}.cls-3,.cls-4{fill:#1d1d1b;}.cls-3{stroke:#1d1d1b;stroke-miterlimit:10;stroke-width:0.13px;}.cls-4,.cls-5{stroke:#fff;stroke-width:3px;}</style></defs><title>Fichier 7</title><g id="Calque_2" data-name="Calque 2"><g id="Calque_1-2" data-name="Calque 1"><circle class="cls-1" cx="465.99" cy="465.99" r="440.94"/><circle class="cls-2" cx="465.99" cy="465.99" r="464.99"/><path class="cls-3" d="M220.09,737.78c0-43.85,33.38-77.87,79.14-77.87,18.65,0,35.75,5.73,48.12,15.1l-9.27,15.1c-9.83-7.73-23.29-11.92-37.67-11.92-36.2,0-60.13,26-60.13,59.59s23.93,59.59,60.13,59.59c14.38,0,27.84-4.19,37.67-11.92l9.27,15.1c-12.37,9.37-29.47,15.1-48.12,15.1C253.47,815.65,220.09,781.63,220.09,737.78Z"/><path class="cls-3" d="M378.54,812.74V662.64h78V679H397.1v50.31h57.31V745.7H397.1v50.67h59.49v16.37Z"/><path class="cls-3" d="M534.61,662.64c29.84,0,48.67,16.83,48.67,44,0,23.83-14.46,39.66-38.12,43.21l49.49,62.86H571.09L524.6,751.52h-14v61.22H492V662.64Zm-24,73.14h19c21.65,0,34.47-11,34.47-29.11s-12.82-29.11-34.47-29.11h-19Z"/><path class="cls-3" d="M620.65,662.64h42.57c29.38,0,48.67,16.74,48.67,44.21s-19.29,44.21-48.67,44.21h-24v61.68H620.65Zm18.56,14.92v58.59h19c20.39,0,34.48-10.47,34.48-29.3s-14.09-29.29-34.48-29.29Z"/><polygon class="cls-4" points="625.71 395.61 648.59 453.03 710.85 369.89 685.67 310.19 625.71 395.61"/><polyline class="cls-4" points="192.98 573.07 155.91 474.9 124.04 639.46 147.78 639.46"/><polygon class="cls-4" points="135.96 234.35 130.29 321.71 148.88 456.28 155.91 474.9 192.98 573.07 192.98 573.07 192.98 573.07 202.89 599.33 218.1 639.61 311.36 358.49 135.96 234.35"/><polyline class="cls-4" points="147.78 639.61 192.98 573.07 177.94 533.24"/><polygon class="cls-4" points="709.86 287.45 759.85 265.23 718.76 246.9 704.1 195.29 718.76 246.9 759.85 265.23 759.85 265.23 759.85 265.23 785.39 276.63 809.22 322.16 807.76 279.23 716.18 183.85 633.24 262.35 709.86 287.45"/><polygon class="cls-4" points="112.11 333.69 130.29 321.71 135.96 234.35 112.11 333.69"/><polygon class="cls-4" points="625.71 395.61 685.67 310.19 633.24 262.35 716.18 183.85 526.48 138.1 686.25 212.18 526.48 138.1 339.47 125.42 192.98 178.42 135.96 234.35 311.36 358.49 311.36 358.49 311.36 358.49 566.59 539.12 566.59 539.12 566.59 539.12 588.07 554.32 710.03 639.61 597.32 436.05 625.71 395.61"/><polygon class="cls-4" points="311.36 358.49 218.1 639.61 234.99 639.61 315.85 454.89 464.19 467.39 492.61 487.57 516.47 639.61 521.41 639.61 566.59 539.12 311.36 358.49"/><polygon class="cls-4" points="597.32 436.05 710.03 639.61 722.95 639.61 651.18 459.52 651.18 459.52 651.18 459.52 625.71 395.61 597.32 436.05"/><polygon class="cls-4" points="809.38 326.85 809.22 322.16 785.39 276.63 759.85 265.23 709.86 287.45 633.24 262.35 685.67 310.19 710.85 369.89 765.77 454.96 800.06 455.31 812.18 440.66 803.75 420.14 812.18 440.66 819.87 431.37 809.38 326.85"/><polygon class="cls-4" points="521.41 639.61 531.29 639.61 588.07 554.32 566.59 539.12 521.41 639.61"/><line class="cls-5" x1="140.32" y1="638.46" x2="177.62" y2="532.24"/></g></g></svg>