<svg xmlns="http://www.w3.org/2000/svg" viewBox="0 0 710.75 690.88"><defs><style>.cls-1{fill:#3c3c3b;}.cls-2{fill:none;stroke:#f9b233;stroke-linecap:round;stroke-linejoin:round;stroke-width:3px;}</style></defs><title>Fichier 6</title><g id="Calque_2" data-name="Calque 2"><g id="Calque_1-2" data-name="Calque 1"><path class="cls-1" d="M114.9,614.73c0-42.87,32.65-76.15,77.39-76.15,18.24,0,35,5.61,47.06,14.77l-9.07,14.77c-9.6-7.56-22.78-11.65-36.83-11.65-35.4,0-58.8,25.44-58.8,58.26S158.05,673,193.45,673c14.05,0,27.23-4.09,36.83-11.65l9.07,14.77c-12.09,9.16-28.82,14.76-47.06,14.76C147.55,690.88,114.9,657.61,114.9,614.73Z"/><path class="cls-1" d="M269.87,688V541.26H346.2v16H288v49.2h56v16H288V672H346.2v16Z"/><path class="cls-1" d="M422.49,541.26c29.18,0,47.59,16.45,47.59,43,0,23.31-14.14,38.79-37.27,42.26L481.2,688h-23L412.7,628.17H399V688H380.86V541.26ZM399,612.78H417.6c21.17,0,33.71-10.77,33.71-28.47s-12.54-28.47-33.71-28.47H399Z"/><path class="cls-1" d="M506.63,541.26h41.63c28.74,0,47.59,16.36,47.59,43.23S577,627.72,548.26,627.72H524.78V688H506.63Zm18.15,14.58v57.3h18.59c19.93,0,33.71-10.24,33.71-28.65s-13.78-28.65-33.71-28.65Z"/><polygon class="cls-2" points="515.09 271.68 537.98 329.11 600.24 245.97 575.05 186.26 515.09 271.68"/><polyline class="cls-2" points="82.36 449.15 45.3 350.97 13.42 515.53 37.17 515.53"/><polygon class="cls-2" points="25.35 110.43 19.68 197.79 38.27 332.35 45.3 350.97 82.36 449.15 82.36 449.15 82.36 449.15 92.28 475.4 107.48 515.68 200.75 234.56 25.35 110.43"/><polyline class="cls-2" points="37.17 515.68 82.36 449.15 67.32 409.31"/><polygon class="cls-2" points="599.25 163.53 649.24 141.31 608.15 122.97 593.48 71.36 608.15 122.97 649.24 141.31 649.24 141.31 649.24 141.31 674.78 152.71 698.61 198.23 697.15 155.3 605.56 59.93 522.63 138.42 599.25 163.53"/><polygon class="cls-2" points="1.5 209.76 19.68 197.79 25.35 110.43 1.5 209.76"/><polygon class="cls-2" points="515.09 271.68 575.05 186.26 522.63 138.42 605.56 59.93 415.86 14.18 575.63 88.25 415.86 14.18 228.86 1.5 82.36 54.5 25.35 110.43 200.75 234.56 200.75 234.56 200.75 234.56 455.98 415.19 455.98 415.19 455.98 415.19 477.45 430.4 599.42 515.68 486.7 312.13 515.09 271.68"/><polygon class="cls-2" points="200.75 234.56 107.48 515.68 124.38 515.68 205.23 330.97 353.57 343.46 382 363.64 405.86 515.68 410.8 515.68 455.98 415.19 200.75 234.56"/><polygon class="cls-2" points="486.7 312.13 599.42 515.68 612.34 515.68 540.57 335.6 540.57 335.6 540.57 335.6 515.09 271.68 486.7 312.13"/><polygon class="cls-2" points="698.77 202.93 698.61 198.23 674.78 152.71 649.24 141.31 599.25 163.53 522.63 138.42 575.05 186.26 600.24 245.97 655.15 331.04 689.45 331.39 701.57 316.74 693.13 296.21 701.57 316.74 709.25 307.44 698.77 202.93"/><polygon class="cls-2" points="410.8 515.68 420.68 515.68 477.45 430.4 455.98 415.19 410.8 515.68"/><path class="cls-2" d="M29.49,515.53c-.38,0,40.05-100.34,40.05-100.34"/></g></g></svg>