<svg xmlns="http://www.w3.org/2000/svg" viewBox="0 0 1140.05 1140.05"><defs><style>.cls-1,.cls-2{fill:none;stroke-linecap:round;stroke-linejoin:round;}.cls-1,.cls-2,.cls-3{stroke:#fff;}.cls-2{stroke-width:3px;}.cls-3{fill:#fff;stroke-miterlimit:10;stroke-width:0.13px;}</style></defs><title>Fichier 9</title><g id="Calque_2" data-name="Calque 2"><g id="Calque_1-2" data-name="Calque 1"><circle class="cls-1" cx="570.02" cy="570.02" r="533.4"/><circle class="cls-2" cx="570.02" cy="570.02" r="568.52"/><path class="cls-3" d="M272.51,886c0-53.09,40.42-94.27,95.82-94.27,22.57,0,43.28,6.94,58.26,18.28l-11.23,18.28c-11.9-9.36-28.2-14.43-45.6-14.43C325.92,813.89,297,845.38,297,886s28.95,72.13,72.79,72.13c17.4,0,33.7-5.06,45.6-14.43L426.59,962c-15,11.34-35.69,18.28-58.26,18.28C312.93,980.3,272.51,939.1,272.51,886Z"/><path class="cls-3" d="M464.21,976.77V795.06H558.7v19.83h-72v60.89h69.39v19.83H486.67V957h72v19.82Z"/><path class="cls-3" d="M653,795.06c36.13,0,58.92,20.37,58.92,53.3,0,28.85-17.51,48-46.14,52.31l59.91,76.1H697.2l-56.27-74.12H624v74.12H601.5V795.06ZM624,883.6h23c26.21,0,41.74-13.32,41.74-35.24S673.19,813.12,647,813.12H624Z"/><path class="cls-3" d="M757.08,795.06h51.54c35.57,0,58.91,20.26,58.91,53.52s-23.34,53.53-58.91,53.53H779.54v74.66H757.08Zm22.46,18.06v70.93h23c24.67,0,41.74-12.67,41.74-35.47s-17.07-35.46-41.74-35.46Z"/><polygon class="cls-2" points="729.74 491.63 752.63 549.05 814.88 465.91 789.7 406.21 729.74 491.63"/><polyline class="cls-2" points="297.01 669.1 259.94 570.92 228.07 735.48 251.82 735.48"/><polygon class="cls-2" points="240 330.37 234.33 417.73 252.91 552.3 259.94 570.92 297.01 669.1 297.01 669.1 297.01 669.1 306.92 695.35 322.13 735.63 415.39 454.51 240 330.37"/><polyline class="cls-2" points="251.82 735.63 297.01 669.1 281.97 629.26"/><polygon class="cls-2" points="813.9 383.48 863.88 361.25 822.8 342.92 808.13 291.31 822.8 342.92 863.88 361.25 863.88 361.25 863.88 361.25 889.43 372.65 913.26 418.18 911.8 375.25 820.21 279.88 737.27 358.37 813.9 383.48"/><polygon class="cls-2" points="216.15 429.71 234.33 417.73 240 330.37 216.15 429.71"/><polygon class="cls-2" points="729.74 491.63 789.7 406.21 737.27 358.37 820.21 279.88 630.51 234.13 790.28 308.2 630.51 234.13 443.5 221.45 297.01 274.45 240 330.37 415.39 454.51 415.39 454.51 415.39 454.51 670.62 635.14 670.62 635.14 670.62 635.14 692.1 650.34 814.06 735.63 701.35 532.08 729.74 491.63"/><polygon class="cls-2" points="415.39 454.51 322.13 735.63 339.02 735.63 419.88 550.91 568.22 563.41 596.65 583.59 620.51 735.63 625.45 735.63 670.62 635.14 415.39 454.51"/><polygon class="cls-2" points="701.35 532.08 814.06 735.63 826.99 735.63 755.21 555.54 755.21 555.54 755.21 555.54 729.74 491.63 701.35 532.08"/><polygon class="cls-2" points="913.42 422.87 913.26 418.18 889.43 372.65 863.88 361.25 813.9 383.48 737.27 358.37 789.7 406.21 814.88 465.91 869.8 550.98 904.1 551.34 916.22 536.68 907.78 516.16 916.22 536.68 923.9 527.39 913.42 422.87"/><polygon class="cls-2" points="625.45 735.63 635.32 735.63 692.1 650.34 670.62 635.14 625.45 735.63"/><line class="cls-2" x1="243.45" y1="734.48" x2="280.75" y2="628.26"/></g></g></svg>